<svg width="71" height="75" viewBox="0 0 71 75" fill="none" xmlns="http://www.w3.org/2000/svg">
<rect x="0.5" width="70" height="75" rx="8" fill="#217ABD"/>
<g clip-path="url(#clip0)">
<path d="M56.8263 59.3245L60.5 58.9887L58.5748 41.5755C58.7801 40.0539 59.0534 37.7482 59.157 35.3639C59.332 31.299 59.941 18.3918 48.2376 18.3918C36.5288 18.3918 36.8484 29.1684 36.8484 29.1684L37.7021 43.1525L36.0769 58.828L39.7471 59.1637L41.2044 47.8978C42.0903 50.8929 42.9279 53.6522 42.9279 53.6522L41.8384 60.2728H55.6225L54.0705 53.4218C54.0705 53.4218 54.551 50.2518 55.1278 46.9138L56.8263 59.3245ZM50.9183 37.7321V41.0201H50.9362L52.1167 41.5791L48.4108 48.2568L44.7799 41.3737L45.7086 41.1397V37.6178C41.9206 36.4284 39.1523 32.9261 39.1523 28.7433C39.1523 28.4272 39.2113 28.129 39.2434 27.8218C41.8259 27.645 50.5272 26.8431 50.7522 24.0141C51.5845 25.5482 55.978 29.4041 57.7568 29.6988C57.3532 33.5797 54.5938 36.7391 50.9183 37.7321Z" fill="#FFFCF9"/>
<path d="M26.3719 38.9072C26.3719 38.9072 25.1271 42.731 21.6998 42.9328C18.269 43.1293 16.9724 38.9072 16.9724 38.9072H14.9846H12.7396H11.0054L10.5 56.6383H13.6237L13.788 60.0335H14.2666V60.271H29.5867V60.0335H30.1725L30.1742 56.2668L33.4443 56.2115L33.0407 38.909H26.3719V38.9072Z" fill="#FFFCF9"/>
<path d="M13.1789 25.7947C13.0664 26.168 12.9503 26.543 12.8824 26.9324C12.8039 27.4182 12.761 27.9254 12.761 28.4362C12.761 33.4655 16.8366 37.5393 21.8677 37.5393C26.8898 37.5393 30.9654 33.4655 30.9654 28.4362C30.9654 27.4307 30.7654 26.4805 30.4671 25.5751L32.3138 23.0247L29.0026 21.8585L29.6491 18.4723L25.6021 19.6278L23.7429 15.729L20.2889 19.3313L17.6135 16.2326L16.3544 20.3279L12.0591 18.9187L13.6772 22.5389L10.5518 23.4158L13.1789 25.7947Z" fill="#FFFCF9"/>
</g>
<defs>
<clipPath id="clip0">
<rect width="50" height="50" fill="white" transform="translate(10.5 13)"/>
</clipPath>
</defs>
</svg>
