<svg width="71" height="75" viewBox="0 0 71 75" fill="none" xmlns="http://www.w3.org/2000/svg">
<rect x="0.5" width="70" height="75" rx="8" fill="#217ABD"/>
<path d="M43.3 62.9C42.85 63.4167 42.3667 63.7833 41.85 64C41.3333 64.2333 40.7083 64.35 39.975 64.35C39.0083 64.35 38.2417 64.15 37.675 63.75C37.125 63.3333 36.7667 62.6333 36.6 61.65L36.15 59.15C35.9333 57.9333 35.6667 57.0417 35.35 56.475C35.05 55.8917 34.5417 55.6 33.825 55.6H32.2V61.35C32.2 61.9833 32.2417 62.4417 32.325 62.725C32.425 63.0083 32.6 63.2 32.85 63.3C33.1 63.4 33.5083 63.4667 34.075 63.5V64C33.175 63.95 31.9167 63.925 30.3 63.925C28.5167 63.925 27.2 63.95 26.35 64V63.5C26.9 63.4667 27.3 63.4 27.55 63.3C27.8167 63.2 27.9917 63.0083 28.075 62.725C28.175 62.4417 28.225 61.9833 28.225 61.35V48.95C28.225 48.3167 28.175 47.8583 28.075 47.575C27.9917 47.2917 27.8167 47.1 27.55 47C27.3 46.9 26.9 46.8333 26.35 46.8V46.3C27.2 46.35 28.4667 46.375 30.15 46.375L32.925 46.35C33.2583 46.3333 33.6417 46.325 34.075 46.325C36.375 46.325 38.1 46.7 39.25 47.45C40.4167 48.2 41 49.275 41 50.675C41 51.8583 40.5667 52.9 39.7 53.8C38.8333 54.7 37.4 55.2667 35.4 55.5C36.9 55.6333 38.0167 55.9583 38.75 56.475C39.4833 56.9917 39.9583 57.7667 40.175 58.8L40.75 61.375C40.8833 62.0417 41.0333 62.5083 41.2 62.775C41.3833 63.0417 41.6333 63.175 41.95 63.175C42.15 63.1583 42.3167 63.1083 42.45 63.025C42.6 62.9417 42.7667 62.8 42.95 62.6L43.3 62.9ZM33.75 46.8C33.3 46.8 32.9667 46.8583 32.75 46.975C32.55 47.0917 32.4083 47.3 32.325 47.6C32.2417 47.9 32.2 48.35 32.2 48.95V55.1H33.275C34.6417 55.1 35.575 54.7417 36.075 54.025C36.5917 53.2917 36.85 52.2667 36.85 50.95C36.85 49.5833 36.6083 48.55 36.125 47.85C35.6417 47.15 34.85 46.8 33.75 46.8ZM59.5113 46.8C58.9613 46.8833 58.553 47.025 58.2863 47.225C58.0363 47.425 57.8613 47.7417 57.7613 48.175C57.678 48.6083 57.6363 49.25 57.6363 50.1V56.725C57.6363 59.1083 57.2947 60.875 56.6113 62.025C56.1613 62.7583 55.5113 63.3333 54.6613 63.75C53.8113 64.15 52.7697 64.35 51.5363 64.35C49.603 64.35 48.103 63.9333 47.0363 63.1C46.2697 62.4833 45.753 61.7083 45.4863 60.775C45.2197 59.825 45.0863 58.5 45.0863 56.8V48.95C45.0863 48.3167 45.0363 47.8583 44.9363 47.575C44.853 47.2917 44.678 47.1 44.4113 47C44.1613 46.9 43.7613 46.8333 43.2113 46.8V46.3C44.0613 46.35 45.3613 46.375 47.1113 46.375C48.8447 46.375 50.1697 46.35 51.0863 46.3V46.8C50.4863 46.8333 50.0447 46.9 49.7613 47C49.4947 47.1 49.3113 47.2917 49.2113 47.575C49.1113 47.8583 49.0613 48.3167 49.0613 48.95V58.375C49.0613 60.125 49.3113 61.4167 49.8113 62.25C50.328 63.0667 51.228 63.475 52.5113 63.475C54.178 63.475 55.353 62.9167 56.0363 61.8C56.7197 60.6667 57.0613 59.0667 57.0613 57V50.4C57.0613 49.4333 57.003 48.7167 56.8863 48.25C56.7697 47.7833 56.5447 47.45 56.2113 47.25C55.878 47.0333 55.353 46.8833 54.6363 46.8V46.3C55.2697 46.35 56.1697 46.375 57.3363 46.375C58.2697 46.375 58.9947 46.35 59.5113 46.3V46.8Z" fill="#FFFCF9"/>
<path d="M15.9945 23.2L27 29.8L43.5 19.9L27 10L10.5 19.9H27V23.2H15.9945ZM10.5 23.2V36.4L13.8 32.737V25.18L10.5 23.2ZM27 43L18.75 38.05L15.45 36.07V26.17L27 33.1L38.55 26.17V36.07L27 43Z" fill="#FFFCF9"/>
</svg>
