<svg width="71" height="75" viewBox="0 0 71 75" fill="none" xmlns="http://www.w3.org/2000/svg">
<rect x="0.5" width="70" height="75" rx="8" fill="#217ABD"/>
<path d="M9.5 14C9.5 14 9.5 15.3044 9.5 16.796V35.1769C9.5 42.1374 12.2939 49.7576 24.001 49.7576H27.0607V40.8182L15.3487 40.7788C15.3487 40.7788 17.0957 35.7215 27.0607 35.6839V28.7234C27.0607 25.7403 27.5363 23.9847 29.5745 22.0348C31.3341 20.6999 32.6532 20.2221 35.5727 20.2221H38.5019V17.2439C38.5019 15.7524 38.5019 14 38.5019 14C38.5019 14 30.4781 16.8009 24.1315 16.8009C19.2543 16.8009 9.5 14 9.5 14ZM17.9589 22.6834C18.9204 22.6834 19.8425 23.0724 20.5223 23.7647C21.2022 24.4571 21.5841 25.3962 21.5841 26.3753C21.5841 27.3545 21.2022 28.2935 20.5223 28.9859C19.8425 29.6783 18.9204 30.0673 17.9589 30.0673C16.9974 30.0673 16.0753 29.6783 15.3955 28.9859C14.7156 28.2935 14.3337 27.3545 14.3337 26.3753C14.3337 25.3962 14.7156 24.4571 15.3955 23.7647C16.0753 23.0724 16.9974 22.6834 17.9589 22.6834ZM31.2322 25.1447C31.2322 25.1447 31.2322 27.2318 31.2322 28.7234V47.0994C31.2322 54.055 34.1614 62 45.8685 62C57.5756 62 60.5 53.5627 60.5 47.1043V28.7234C60.5 27.2318 60.5 25.1447 60.5 25.1447C60.5 25.1447 50.388 27.606 45.999 27.606C41.6101 27.606 31.2322 25.1447 31.2322 25.1447ZM39.957 34.9898C40.9184 34.9898 41.8405 35.3788 42.5204 36.0712C43.2003 36.7635 43.5822 37.7026 43.5822 38.6818C43.5822 39.6609 43.2003 40.6 42.5204 41.2923C41.8405 41.9847 40.9184 42.3737 39.957 42.3737C38.9955 42.3737 38.0734 41.9847 37.3935 41.2923C36.7137 40.6 36.3317 39.6609 36.3317 38.6818C36.3317 37.7026 36.7137 36.7635 37.3935 36.0712C38.0734 35.3788 38.9955 34.9898 39.957 34.9898ZM52.0411 34.9898C53.0026 34.9898 53.9247 35.3788 54.6045 36.0712C55.2844 36.7635 55.6663 37.7026 55.6663 38.6818C55.6663 39.6609 55.2844 40.6 54.6045 41.2923C53.9247 41.9847 53.0026 42.3737 52.0411 42.3737C51.0796 42.3737 50.1575 41.9847 49.4777 41.2923C48.7978 40.6 48.4159 39.6609 48.4159 38.6818C48.4159 37.7026 48.7978 36.7635 49.4777 36.0712C50.1575 35.3788 51.0796 34.9898 52.0411 34.9898ZM37.0858 50.0824H55.1395C55.1395 50.0824 53.6749 56.0437 46.3567 56.0437C39.0386 56.0437 37.0858 50.0874 37.0858 50.0874V50.0824Z" fill="#FFFCF9"/>
</svg>
