<svg width="71" height="75" viewBox="0 0 71 75" fill="none" xmlns="http://www.w3.org/2000/svg">
<rect x="0.5" width="70" height="75" rx="8" fill="#217ABD"/>
<path d="M35.202 10.9528C36.966 10.9528 38.352 11.3938 39.36 12.2758C40.41 13.1158 40.935 14.2918 40.935 15.8038C40.935 17.3158 40.41 18.5128 39.36 19.3948C38.352 20.2348 36.966 20.6548 35.202 20.6548C33.438 20.6548 32.031 20.2348 30.981 19.3948C29.973 18.5128 29.469 17.3158 29.469 15.8038C29.469 14.2918 29.973 13.1158 30.981 12.2758C32.031 11.3938 33.438 10.9528 35.202 10.9528ZM40.116 53.9188C40.116 55.6408 40.41 56.8378 40.998 57.5098C41.628 58.1398 42.678 58.4548 44.148 58.4548V59.7778C39.948 59.6098 37.155 59.5258 35.769 59.5258C34.467 59.5258 31.548 59.6098 27.012 59.7778V58.4548C28.524 58.4548 29.574 58.1398 30.162 57.5098C30.75 56.8378 31.044 55.6408 31.044 53.9188V34.0738C31.044 32.1418 30.75 30.7348 30.162 29.8528C29.574 28.9708 28.524 28.5298 27.012 28.5298V27.2068C28.356 27.3328 29.658 27.3958 30.918 27.3958C34.656 27.3958 37.722 27.1018 40.116 26.5138V53.9188Z" fill="#FFFCF9"/>
</svg>
