<svg width="71" height="75" viewBox="0 0 71 75" fill="none" xmlns="http://www.w3.org/2000/svg">
<rect x="0.5" width="70" height="75" rx="8" fill="#217ABD"/>
<path d="M17.832 30.478C17.832 31.2233 17.9707 31.7433 18.248 32.038C18.5253 32.3153 19.0107 32.454 19.704 32.454V33C17.832 32.9307 16.636 32.896 16.116 32.896C15.544 32.896 14.296 32.922 12.372 32.974L11.644 33V32.454C12.4587 32.454 13.0653 32.298 13.464 31.986C13.88 31.674 14.088 31.1193 14.088 30.322V23.978C14.088 23.146 14.01 22.5393 13.854 22.158C13.7153 21.7593 13.4727 21.4993 13.126 21.378C12.7793 21.2393 12.2507 21.17 11.54 21.17V20.598C13.048 20.5633 14.2873 20.4507 15.258 20.26C16.2287 20.052 17.0867 19.7227 17.832 19.272V30.478ZM27.6811 19.194C29.5878 19.194 31.0785 19.8267 32.1531 21.092C33.2451 22.34 33.7911 24.0993 33.7911 26.37C33.7911 28.5367 33.2538 30.3827 32.1791 31.908C31.1045 33.416 29.7871 34.5773 28.2271 35.392C26.6671 36.2067 25.1158 36.7267 23.5731 36.952L23.4691 36.432C24.5091 36.12 25.4191 35.73 26.1991 35.262C26.9965 34.794 27.6985 34.0833 28.3051 33.13C28.9291 32.194 29.3711 30.9547 29.6311 29.412C29.2671 29.9493 28.7905 30.348 28.2011 30.608C27.6118 30.868 26.9791 30.998 26.3031 30.998C25.3671 30.998 24.5091 30.7727 23.7291 30.322C22.9665 29.854 22.3511 29.1953 21.8831 28.346C21.4325 27.4967 21.2071 26.5 21.2071 25.356C21.2071 24.0733 21.4931 22.9727 22.0651 22.054C22.6545 21.118 23.4431 20.4073 24.4311 19.922C25.4191 19.4367 26.5025 19.194 27.6811 19.194ZM27.3431 30.244C27.7765 30.244 28.2185 30.0967 28.6691 29.802C29.1371 29.49 29.5011 29.0133 29.7611 28.372C29.8305 27.8 29.8651 27.0893 29.8651 26.24C29.8651 23.9347 29.6225 22.2707 29.1371 21.248C28.6518 20.2253 28.0711 19.714 27.3951 19.714C26.7538 19.714 26.2165 20.1647 25.7831 21.066C25.3498 21.95 25.1331 23.3107 25.1331 25.148C25.1331 26.8987 25.3325 28.19 25.7311 29.022C26.1471 29.8367 26.6845 30.244 27.3431 30.244ZM47.7462 32.194C47.5382 32.142 46.6716 32.0987 45.1462 32.064V36.666H42.1302V32.064H35.0322V31.518L44.7302 19.194H45.1462V29.386H45.3542C45.8222 29.386 46.1689 29.3513 46.3942 29.282C46.6369 29.2127 46.8016 29.1 46.8882 28.944C46.9749 28.788 47.0442 28.5453 47.0962 28.216H47.6422C47.6422 30.0533 47.6769 31.3793 47.7462 32.194ZM42.1302 29.386V23.328L37.4242 29.386H42.1302ZM55.8925 30.478C55.8925 31.2233 56.0312 31.7433 56.3085 32.038C56.5859 32.3153 57.0712 32.454 57.7645 32.454V33C55.8925 32.9307 54.6965 32.896 54.1765 32.896C53.6045 32.896 52.3565 32.922 50.4325 32.974L49.7045 33V32.454C50.5192 32.454 51.1259 32.298 51.5245 31.986C51.9405 31.674 52.1485 31.1193 52.1485 30.322V23.978C52.1485 23.146 52.0705 22.5393 51.9145 22.158C51.7759 21.7593 51.5332 21.4993 51.1865 21.378C50.8399 21.2393 50.3112 21.17 49.6005 21.17V20.598C51.1085 20.5633 52.3479 20.4507 53.3185 20.26C54.2892 20.052 55.1472 19.7227 55.8925 19.272V30.478Z" fill="#FFFCF9"/>
<path d="M17.832 54.478C17.832 55.2233 17.9707 55.7433 18.248 56.038C18.5253 56.3153 19.0107 56.454 19.704 56.454V57C17.832 56.9307 16.636 56.896 16.116 56.896C15.544 56.896 14.296 56.922 12.372 56.974L11.644 57V56.454C12.4587 56.454 13.0653 56.298 13.464 55.986C13.88 55.674 14.088 55.1193 14.088 54.322V47.978C14.088 47.146 14.01 46.5393 13.854 46.158C13.7153 45.7593 13.4727 45.4993 13.126 45.378C12.7793 45.2393 12.2507 45.17 11.54 45.17V44.598C13.048 44.5633 14.2873 44.4507 15.258 44.26C16.2287 44.052 17.0867 43.7227 17.832 43.272V54.478ZM27.6811 43.194C29.5878 43.194 31.0785 43.8267 32.1531 45.092C33.2451 46.34 33.7911 48.0993 33.7911 50.37C33.7911 52.5367 33.2538 54.3827 32.1791 55.908C31.1045 57.416 29.7871 58.5773 28.2271 59.392C26.6671 60.2067 25.1158 60.7267 23.5731 60.952L23.4691 60.432C24.5091 60.12 25.4191 59.73 26.1991 59.262C26.9965 58.794 27.6985 58.0833 28.3051 57.13C28.9291 56.194 29.3711 54.9547 29.6311 53.412C29.2671 53.9493 28.7905 54.348 28.2011 54.608C27.6118 54.868 26.9791 54.998 26.3031 54.998C25.3671 54.998 24.5091 54.7727 23.7291 54.322C22.9665 53.854 22.3511 53.1953 21.8831 52.346C21.4325 51.4967 21.2071 50.5 21.2071 49.356C21.2071 48.0733 21.4931 46.9727 22.0651 46.054C22.6545 45.118 23.4431 44.4073 24.4311 43.922C25.4191 43.4367 26.5025 43.194 27.6811 43.194ZM27.3431 54.244C27.7765 54.244 28.2185 54.0967 28.6691 53.802C29.1371 53.49 29.5011 53.0133 29.7611 52.372C29.8305 51.8 29.8651 51.0893 29.8651 50.24C29.8651 47.9347 29.6225 46.2707 29.1371 45.248C28.6518 44.2253 28.0711 43.714 27.3951 43.714C26.7538 43.714 26.2165 44.1647 25.7831 45.066C25.3498 45.95 25.1331 47.3107 25.1331 49.148C25.1331 50.8987 25.3325 52.19 25.7311 53.022C26.1471 53.8367 26.6845 54.244 27.3431 54.244ZM47.7462 56.194C47.5382 56.142 46.6716 56.0987 45.1462 56.064V60.666H42.1302V56.064H35.0322V55.518L44.7302 43.194H45.1462V53.386H45.3542C45.8222 53.386 46.1689 53.3513 46.3942 53.282C46.6369 53.2127 46.8016 53.1 46.8882 52.944C46.9749 52.788 47.0442 52.5453 47.0962 52.216H47.6422C47.6422 54.0533 47.6769 55.3793 47.7462 56.194ZM42.1302 53.386V47.328L37.4242 53.386H42.1302ZM58.5705 42.57C58.5705 44.598 58.6052 46.054 58.6745 46.938C58.3105 46.8513 57.1059 46.808 55.0605 46.808H51.0565L50.6405 51.254C51.6459 50.5607 52.9545 50.214 54.5665 50.214C56.2305 50.214 57.4872 50.5953 58.3365 51.358C59.2032 52.1207 59.6365 53.1087 59.6365 54.322C59.6365 55.6047 59.1339 56.74 58.1285 57.728C57.1232 58.7333 55.8232 59.5047 54.2285 60.042C52.6512 60.5793 51.0219 60.848 49.3405 60.848V60.38C50.4325 60.3627 51.4725 60.12 52.4605 59.652C53.4485 59.2013 54.2459 58.5253 54.8525 57.624C55.4592 56.74 55.7625 55.6913 55.7625 54.478C55.7625 53.386 55.5025 52.554 54.9825 51.982C54.4799 51.3927 53.7432 51.098 52.7725 51.098C52.3045 51.098 51.8885 51.1587 51.5245 51.28C51.1605 51.4013 50.7965 51.592 50.4325 51.852L50.0685 51.618L50.9005 43.48C51.2472 43.5493 51.7152 43.584 52.3045 43.584H56.5945C57.0972 43.584 57.4439 43.5147 57.6345 43.376C57.8425 43.22 57.9725 42.9513 58.0245 42.57H58.5705Z" fill="#FFFCF9"/>
</svg>
