<svg width="71" height="75" viewBox="0 0 71 75" fill="none" xmlns="http://www.w3.org/2000/svg">
<rect x="0.5" width="70" height="75" rx="8" fill="#217ABD"/>
<path fill-rule="evenodd" clip-rule="evenodd" d="M32.7798 16.8745L32.8976 17.0398C32.8707 17.0647 32.7497 17.1315 32.612 17.2076C32.396 17.3268 32.1388 17.4688 32.1388 17.5078C32.2537 17.444 32.4378 17.359 32.5985 17.3166C32.5298 17.444 32.5066 17.5078 32.4837 17.6141C33.1966 17.1251 34.3696 16.7209 34.4847 16.7209C34.4923 16.7209 34.4923 16.7091 34.4923 16.6934C34.4922 16.6619 34.4922 16.6146 34.5535 16.6146C34.5996 16.6782 34.7147 16.6997 34.8067 16.6782C34.822 16.6641 34.8423 16.6523 34.8627 16.6405C34.9036 16.617 34.9445 16.5934 34.9445 16.5508C34.8067 16.6146 34.6457 16.4446 34.6915 16.3169C34.7606 16.2743 34.8525 16.2316 34.9216 16.2316C35.0596 16.2316 35.1286 16.2528 35.2435 16.3169C35.3125 16.3805 35.3816 16.487 35.3357 16.572C35.3139 16.6424 35.2408 16.6747 35.1672 16.7073C35.0852 16.7435 35.0027 16.78 34.9906 16.8697C34.9998 16.8784 35.0016 16.8905 35.0035 16.9032C35.0062 16.922 35.0092 16.9421 35.0367 16.9548C34.9906 16.8271 35.1977 16.8271 35.2896 16.8271C35.1934 16.9289 35.0644 16.9774 34.9319 17.0272C34.8427 17.0607 34.752 17.0949 34.6686 17.1463C34.5864 17.1652 34.5364 17.2097 34.4917 17.2493C34.4365 17.2984 34.3896 17.34 34.3006 17.3166C34.1857 17.2951 34.1167 17.2101 34.1857 17.1251C34.0937 17.1675 34.0015 17.2739 33.9786 17.359L33.9786 17.359C34.0015 17.4228 34.0245 17.4866 34.0937 17.5078C33.9557 17.5717 33.8637 17.7205 33.9327 17.8482L33.9342 17.8496C34.0025 17.9129 34.0707 17.9762 34.0937 18.0607C34.1758 18.0228 34.2029 17.917 34.2241 17.8342C34.2266 17.8243 34.2291 17.8147 34.2315 17.8056C34.3006 17.9332 34.4157 18.1247 34.5306 18.1247C34.5392 18.1247 34.5527 18.1255 34.5696 18.1264C34.6425 18.1304 34.7778 18.1379 34.8525 18.1033C34.8783 18.1192 34.9009 18.1411 34.9239 18.1633C34.9624 18.2006 35.002 18.2389 35.0596 18.2521L35.0605 18.2523C35.1107 18.258 35.1608 18.2638 35.2095 18.267C35.1026 18.3628 35.0081 18.468 34.9451 18.5927C34.8399 18.8263 34.889 19.1137 34.9332 19.3728L34.9332 19.3728L34.9451 19.4435C34.9652 19.5083 35.0201 19.565 35.0758 19.6225C35.1479 19.697 35.2212 19.7727 35.2212 19.8689C35.2093 20.0018 35.1285 20.1233 35.0475 20.2452C34.973 20.3572 34.8983 20.4696 34.8763 20.5918C34.8577 20.78 34.9135 20.9545 34.972 21.1372L34.972 21.1372C34.9862 21.1817 35.0006 21.2267 35.0142 21.2725C35.0326 21.315 35.073 21.3506 35.1135 21.3863C35.1742 21.44 35.235 21.4936 35.2212 21.5702C35.1972 21.6701 35.1229 21.7469 35.0477 21.8247C34.9789 21.8958 34.9092 21.9679 34.8763 22.0592C34.8073 22.3146 34.7841 22.5911 34.8302 22.8462C34.8405 22.9319 34.8968 23.009 34.9539 23.0871C35.0244 23.1836 35.096 23.2817 35.0832 23.3993C35.0701 23.5814 34.9745 23.7496 34.8777 23.9199C34.805 24.0479 34.7316 24.1769 34.6922 24.3139C34.6234 24.569 34.5541 24.8455 34.6234 25.1006C34.6756 25.265 34.7943 25.403 34.9125 25.5405C35.0546 25.7057 35.1961 25.8702 35.2212 26.0791C35.2348 26.343 35.1279 26.5847 35.0192 26.8305C34.9439 27.0006 34.8679 27.1726 34.8302 27.3553C34.8174 27.4123 34.8043 27.4694 34.7911 27.5264C34.6868 27.9798 34.5825 28.4332 34.6234 28.8866C34.6345 29.0518 34.727 29.202 34.8191 29.3517C34.9168 29.5103 35.0142 29.6685 35.0142 29.8436C35.0279 29.9947 34.9366 30.1234 34.8456 30.2519C34.7829 30.3404 34.7203 30.4287 34.6922 30.5241C34.6234 30.7794 34.5773 31.056 34.6234 31.3111C34.6562 31.463 34.736 31.6053 34.8155 31.7472C34.903 31.9032 34.9901 32.0587 35.0142 32.2257C35.0271 32.3088 34.9754 32.3853 34.9232 32.4625C34.882 32.5236 34.8404 32.5852 34.8302 32.6509C34.8188 32.736 34.836 32.8158 34.8533 32.8956C34.8706 32.9753 34.8878 33.0551 34.8763 33.1401C34.8648 33.2147 34.8245 33.2838 34.7842 33.353C34.744 33.422 34.7038 33.4911 34.6922 33.5655C34.6463 33.7358 34.6463 33.927 34.6922 34.1185C34.7029 34.2072 34.7433 34.2914 34.7835 34.3752C34.83 34.4722 34.8763 34.5688 34.8763 34.6714C34.8869 34.7694 34.8682 34.8718 34.8494 34.9745V34.9745C34.8274 35.095 34.8054 35.216 34.8302 35.3309C34.8522 35.4826 34.9209 35.6248 34.9894 35.7664C35.065 35.9225 35.1402 36.0781 35.1522 36.2453C35.1898 36.7244 35.2102 37.2036 35.215 37.682L34.579 37.1079C29.7833 32.7794 24.9876 28.4509 20.2262 24.1437C19.4213 21.6766 22.4802 20.1665 27.3789 21.0811C27.0604 21.4601 26.7191 21.8388 26.3779 22.2175L26.3669 22.2296C29.0348 21.9319 31.5879 22.1658 33.9109 23.5058C32.1167 21.5277 29.5868 19.869 26.3669 18.529C26.5484 18.8225 26.7354 19.1213 26.9225 19.4201L26.9227 19.4205L26.9231 19.4212L26.9235 19.4218C27.1156 19.7285 27.3077 20.0354 27.4938 20.3368C24.803 19.2521 21.376 19.3797 18.2713 21.2938C16.8454 21.6127 15.5805 21.6127 14.4994 21.2938C14.6833 22.485 14.7063 23.6759 13.8094 24.8882C12.8665 27.8658 12.9813 30.503 14.1543 32.8212L12.4296 31.8642C14.2694 34.629 16.3163 37.2662 18.8462 39.6907C16.9603 36.7134 16.5463 34.1824 16.7993 31.8642C16.4305 32.0658 16.0616 32.2786 15.7016 32.4863C15.5678 32.5635 15.4352 32.64 15.3043 32.715C14.2694 28.3974 14.5685 25.6326 17.8113 26.2492C23.2675 30.9077 28.7168 35.5597 34.1668 40.2087L33.8032 40.487L33.8026 40.4875L33.8025 40.4875C28.5592 44.5006 23.3159 48.5137 18.0207 52.5162L17.7217 52.7289L18.5727 53.7498L17.6985 54.4091C17.0088 53.4735 15.7668 52.8566 14.7087 52.8566C12.3859 52.8566 10.5 54.643 10.5 56.8126C10.5 58.9818 12.3859 60.7472 14.7087 60.7472C17.0317 60.7472 18.9176 58.9818 18.9176 56.8126C18.9176 56.6423 18.9176 56.4934 18.8947 56.3231L18.3886 56.6635V56.8126C18.3886 58.7055 16.7327 60.2579 14.7087 60.2579C12.685 60.2579 11.029 58.7055 11.029 56.8126C11.029 54.8983 12.685 53.367 14.7087 53.367C15.6058 53.367 16.7558 53.9837 17.2846 54.7282L16.9166 55.026L17.8137 56.0256L18.1586 55.7491L18.1817 55.7279L18.5956 55.409L19.2396 54.8983L18.7795 54.2816L19.1015 54.0051L20.0445 55.111L34.5301 42.8887C34.4907 43.0272 34.4524 43.1662 34.4163 43.3063C34.2554 43.987 34.1402 44.6887 34.0944 45.3907C34.0789 45.6742 34.1044 45.9576 34.13 46.2412L34.13 46.2413C34.1427 46.3831 34.1555 46.5249 34.1631 46.6668C34.1709 46.8013 34.1964 46.9382 34.2219 47.0751C34.2731 47.3494 34.3243 47.6236 34.2322 47.879C34.1927 47.9641 34.078 47.9658 33.9569 47.9676C33.8664 47.9689 33.7723 47.9703 33.7034 48.0066C33.6114 48.0493 33.5192 48.1343 33.4963 48.2405C33.4963 48.4532 33.5424 48.6659 33.6344 48.8574C33.6567 48.8986 33.7113 48.9199 33.7643 48.9405C33.8208 48.9624 33.8755 48.9836 33.8873 49.0275C33.9561 49.2188 33.9734 49.4154 33.9907 49.612C34.008 49.8089 34.0253 50.0057 34.0944 50.1972C34.1728 50.4058 34.3139 50.595 34.4554 50.7847C34.6458 51.0399 34.8367 51.296 34.8763 51.6011C34.9025 51.7221 34.7719 51.7949 34.6292 51.8745C34.5214 51.9346 34.4067 51.9986 34.3473 52.0901C34.2754 52.2065 34.2597 52.3618 34.2452 52.5053C34.2412 52.5454 34.2372 52.5846 34.2322 52.6217C34.2092 52.8132 34.1863 53.0047 34.2322 53.1748C34.3012 53.4513 34.4163 53.7066 34.5541 53.9617C34.61 54.0736 34.7111 54.1681 34.8101 54.2606C34.9557 54.3968 35.097 54.5288 35.0832 54.7061C35.0698 55.1413 34.8992 55.5618 34.7276 55.9849C34.6057 56.2856 34.4832 56.5875 34.4163 56.8969C34.3244 57.3647 34.3012 57.8751 34.3473 58.3429C34.3811 58.5203 34.4703 58.6772 34.5578 58.8311C34.6487 58.9911 34.7379 59.1479 34.7612 59.3214C34.7612 59.4488 34.6868 59.5534 34.6124 59.658C34.5626 59.7278 34.5129 59.7977 34.4854 59.8744C34.4622 60.0233 34.4393 60.1722 34.4854 60.2998C34.506 60.3668 34.5687 60.4166 34.6293 60.4647C34.7031 60.5234 34.7738 60.5795 34.7612 60.6612C34.7369 60.7855 34.641 60.8738 34.5462 60.9611C34.4625 61.0382 34.3797 61.1146 34.3473 61.2142C34.3012 61.4057 34.3473 61.6396 34.4163 61.8311C34.4568 61.9247 34.533 62.006 34.6095 62.0877C34.7067 62.1914 34.8045 62.2956 34.8302 62.4264C34.8417 62.5434 34.7842 62.6551 34.7268 62.7667C34.6693 62.8784 34.6118 62.9901 34.6234 63.1071C34.6388 63.3361 34.7272 63.5459 34.8183 63.7623L34.8183 63.7623C34.8626 63.8675 34.9076 63.9743 34.9451 64.0856C35.0832 64.2768 35.2212 64.4895 35.3364 64.681C35.4051 64.7319 35.4739 64.7753 35.5378 64.8155C35.5806 64.8424 35.6212 64.868 35.6581 64.8935V65L35.6809 64.9789C35.6876 64.9727 35.6944 64.9665 35.7011 64.9603C35.7098 64.9522 35.7185 64.9442 35.7271 64.9361C35.75 64.9576 35.7732 64.9788 35.7961 65V64.8935C35.911 64.8299 36.0261 64.7661 36.1413 64.681C36.2562 64.4895 36.394 64.2768 36.5323 64.0856C36.5688 63.9504 36.6234 63.8219 36.6775 63.6948L36.6775 63.6947C36.7596 63.5019 36.8403 63.3122 36.8542 63.1071C36.8657 62.9902 36.8082 62.8785 36.7507 62.7669C36.6932 62.6552 36.6357 62.5435 36.6471 62.4264C36.6729 62.2956 36.7706 62.1914 36.8678 62.0877C36.9444 62.006 37.0205 61.9247 37.0611 61.8311C37.1301 61.6396 37.1759 61.4057 37.1072 61.2142C37.0848 61.1111 37.0029 61.0329 36.9193 60.953C36.8305 60.8683 36.7398 60.7816 36.7162 60.6612C36.7036 60.5795 36.7742 60.5234 36.8481 60.4647C36.9087 60.4166 36.9714 60.3668 36.992 60.2998C37.0381 60.1722 37.0152 60.0233 36.992 59.8744C36.9645 59.7977 36.9147 59.7278 36.865 59.658C36.7906 59.5534 36.7162 59.4488 36.7162 59.3214C36.7386 59.1545 36.822 59.0031 36.9065 58.8494C36.9944 58.6896 37.0836 58.5274 37.1072 58.3429C37.1759 57.8751 37.153 57.3647 37.0611 56.8969C36.9941 56.5874 36.8716 56.2854 36.7496 55.9846C36.5781 55.5617 36.4075 55.1412 36.394 54.7061C36.3803 54.5288 36.5215 54.3968 36.6672 54.2607C36.7663 54.1681 36.8674 54.0737 36.9233 53.9617C37.0611 53.7066 37.1759 53.4513 37.2452 53.1748C37.2911 53.0047 37.2681 52.8132 37.2452 52.6217C37.2409 52.5902 37.2374 52.5572 37.2338 52.5234C37.2181 52.375 37.2007 52.2113 37.1072 52.0901C37.0566 51.9967 36.9439 51.9319 36.8374 51.8707C36.7014 51.7926 36.5753 51.7202 36.601 51.6011C36.6406 51.296 36.8316 51.0399 37.022 50.7847C37.1635 50.595 37.3046 50.4058 37.383 50.1972C37.452 50.0058 37.4693 49.8091 37.4866 49.6124C37.5038 49.4156 37.5211 49.2189 37.5901 49.0275C37.6019 48.9837 37.6566 48.9624 37.7131 48.9405C37.7661 48.9199 37.8208 48.8986 37.843 48.8574C37.935 48.6659 37.9811 48.4532 37.9811 48.2405C37.9582 48.1343 37.866 48.0493 37.774 48.0066C37.7051 47.9703 37.611 47.9689 37.5204 47.9676C37.3993 47.9658 37.2846 47.9641 37.2452 47.879C37.1532 47.6238 37.2042 47.3496 37.2553 47.0755C37.2808 46.9385 37.3063 46.8015 37.314 46.6668C37.3217 46.5254 37.3345 46.384 37.3472 46.2427L37.3472 46.2427C37.3729 45.9586 37.3985 45.6747 37.383 45.3907C37.3372 44.6887 37.222 43.987 37.0611 43.3063C36.9871 43.0192 36.8942 42.7364 36.799 42.4538C40.3502 45.4823 43.9022 48.5098 47.4572 51.5373C47.3284 51.7113 47.238 51.8419 47.1529 51.9649L47.1529 51.9649L47.1528 51.965L47.1527 51.9652C47.0404 52.1275 46.9373 52.2765 46.7672 52.4943L48.0321 53.4513L47.8007 53.8793L47.3421 54.7275C47.7221 54.8978 48.0733 55.0735 48.4245 55.2492L48.4246 55.2492C48.7749 55.4244 49.1251 55.5996 49.5041 55.7696C49.9425 54.8447 50.4984 54.0179 51.1707 53.2917L51.9869 54.0467C51.412 54.7057 51.0671 55.5565 51.0671 56.4924C51.0671 58.683 52.9989 60.4696 55.368 60.4696C57.7369 60.4696 59.6686 58.683 59.6686 56.4924C59.6686 54.3015 57.7369 52.5151 55.368 52.5151C54.4938 52.5151 53.666 52.749 52.976 53.1744L52.1178 52.3981C53.8885 50.9379 56.2654 50.0102 59.2328 49.6442C59.1747 49.376 59.1459 49.2324 59.1169 49.0876C59.0884 48.9453 59.0597 48.8019 59.0028 48.5383C55.8748 48.5809 53.046 49.3679 50.6081 50.7077C50.4392 50.5613 50.2752 50.3926 50.1093 50.2219C49.9138 50.0207 49.7157 49.8169 49.5041 49.6442C49.3892 49.6974 49.3029 49.7771 49.2167 49.8568C49.1304 49.9366 49.044 50.0164 48.929 50.0696C45.2564 46.7473 41.5633 43.4123 37.8655 40.0744L50.7714 29.185C52.9563 27.4836 55.0952 26.5478 57.9702 28.0152C58.407 29.5039 56.4982 31.5671 55.0952 32.673L55.0923 32.6571C55.0013 32.152 54.9103 31.6468 54.8423 31.1417C53.3012 33.2684 51.4843 34.6509 49.4145 35.5229C51.8982 35.5017 54.3593 35.1401 56.8201 33.5026C56.6115 33.406 56.4029 33.3149 56.1942 33.2238L56.194 33.2237C55.9888 33.134 55.7835 33.0443 55.5781 32.9495C56.7511 32.2476 58.0621 31.4394 58.706 29.5889C59.4419 31.7371 59.3039 33.4811 58.246 35.7782C58.1962 35.5382 58.129 35.2863 58.0613 35.0327C57.9731 34.702 57.8842 34.3685 57.8321 34.0554C56.7972 37.4371 55.601 38.2665 54.0373 39.0111C56.2452 38.6707 58.407 37.7985 60.5 35.1827C60.2868 35.2265 60.049 35.3212 59.8152 35.4143C59.5951 35.5019 59.3785 35.5881 59.189 35.6293C61.4888 26.2286 56.613 25.7394 53.4622 26.1436C54.3593 23.9528 54.5432 22.6768 53.3012 21.4859C51.3004 17.9979 48.2415 16.9982 44.3775 18.5083C44.4424 17.9487 44.487 17.389 44.5302 16.847L44.5303 16.846L44.5303 16.8457L44.5385 16.7429C42.5838 18.5933 41.5947 20.9754 40.6976 23.4638C42.6296 20.8904 44.5156 19.4441 46.8156 19.2953C46.5705 19.1967 46.3451 19.1164 46.1235 19.0375L46.1235 19.0375L46.1234 19.0374C45.8667 18.946 45.6151 18.8563 45.3436 18.7422C47.8503 17.9128 50.1275 18.9549 51.7602 20.55C49.8974 19.6354 47.8964 20.954 46.8156 21.9325C46.7925 21.4006 46.7695 20.869 46.7466 20.3161C44.7224 22.209 43.8946 24.7397 43.2277 27.3771C44.8836 24.91 46.7234 23.1446 48.9313 22.9321C48.5866 22.8789 48.351 22.7992 48.1155 22.7195C47.8796 22.6397 47.6438 22.5599 47.2986 22.5067C48.6784 21.2305 51.1853 20.082 52.6802 22.3791C53.5052 24.3788 51.1748 26.7984 49.6904 28.3396L49.5523 28.483C45.0914 31.8551 40.6674 35.2346 36.249 38.6152L36.221 38.5899C36.2221 37.8105 36.2638 37.0279 36.3252 36.2453C36.3372 36.0781 36.4124 35.9225 36.4879 35.7664C36.5565 35.6248 36.6252 35.4826 36.6471 35.3309C36.672 35.216 36.6499 35.095 36.6279 34.9745V34.9745C36.6092 34.8718 36.5905 34.7694 36.601 34.6714C36.601 34.5688 36.6473 34.4722 36.6939 34.3752C36.7341 34.2914 36.7744 34.2072 36.7852 34.1185C36.831 33.927 36.831 33.7358 36.7852 33.5655C36.7736 33.4911 36.7334 33.422 36.6932 33.353C36.6529 33.2838 36.6126 33.2147 36.601 33.1401C36.5896 33.0551 36.6068 32.9753 36.6241 32.8956C36.6413 32.8158 36.6586 32.736 36.6471 32.6509C36.637 32.5851 36.5954 32.5235 36.554 32.4624C36.5019 32.3852 36.4502 32.3087 36.463 32.2257C36.4871 32.0587 36.5743 31.9032 36.6619 31.7472C36.7415 31.6053 36.8213 31.463 36.8542 31.3111C36.9001 31.056 36.8542 30.7794 36.7852 30.5241C36.757 30.4287 36.6944 30.3403 36.6317 30.2518C36.5406 30.1234 36.4494 29.9946 36.463 29.8436C36.463 29.6684 36.5605 29.5102 36.6582 29.3515C36.7505 29.2019 36.843 29.0518 36.8542 28.8866C36.8949 28.4333 36.7906 27.98 36.6863 27.5266L36.6863 27.5266C36.6731 27.4695 36.66 27.4124 36.6471 27.3553C36.6095 27.1726 36.5334 27.0006 36.4582 26.8305C36.3495 26.5848 36.2426 26.343 36.2562 26.0791C36.2813 25.8702 36.4229 25.7056 36.565 25.5404C36.6833 25.4029 36.8019 25.2649 36.8542 25.1006C36.9232 24.8455 36.8542 24.569 36.7852 24.3139C36.7457 24.1769 36.6723 24.0477 36.5995 23.9197C36.5028 23.7495 36.4072 23.5813 36.394 23.3993C36.3813 23.2817 36.4529 23.1837 36.5234 23.0872C36.5805 23.009 36.6369 22.9319 36.6471 22.8462C36.6932 22.5911 36.6701 22.3146 36.601 22.0592C36.5682 21.9679 36.4985 21.8958 36.4297 21.8247C36.3545 21.7469 36.2802 21.6701 36.2562 21.5702C36.2424 21.4936 36.3031 21.44 36.3638 21.3864C36.4042 21.3507 36.4446 21.315 36.463 21.2725C36.4765 21.227 36.4908 21.1823 36.505 21.138C36.5637 20.955 36.6197 20.7803 36.601 20.5918C36.5791 20.4696 36.5044 20.3572 36.4299 20.2452C36.3488 20.1233 36.2681 20.0018 36.2562 19.8689C36.2562 19.7727 36.3295 19.697 36.4016 19.6225C36.4573 19.565 36.5122 19.5083 36.5323 19.4435L36.5442 19.3728L36.5442 19.3728C36.5884 19.1137 36.6375 18.8263 36.5323 18.5927C36.4634 18.4565 36.3653 18.3435 36.2558 18.2406C36.2761 18.2147 36.2919 18.1895 36.3016 18.1671C36.3933 18.2521 36.6236 18.2522 36.7614 18.231C36.8391 18.2166 36.8958 18.1635 36.9385 18.1109C36.94 18.1101 36.9414 18.1093 36.9429 18.1085C36.9716 18.0972 36.9987 18.0821 37.0022 18.0643C37.0834 17.988 37.1524 17.8595 37.1524 17.7844C37.1639 17.8056 37.1726 17.8282 37.1812 17.8509C37.2071 17.9186 37.233 17.9863 37.3365 18.0183C37.3594 17.9332 37.4055 17.8906 37.4975 17.8056C37.5433 17.6567 37.4285 17.5078 37.2904 17.4652C37.5204 17.4228 37.3824 17.1251 37.1753 17.0824C37.2675 17.1675 37.1524 17.2525 37.0604 17.2739C36.9913 17.2867 36.9306 17.238 36.8681 17.1879C36.8266 17.1546 36.7844 17.1208 36.7384 17.1039C36.6277 17.0355 36.6158 17.0038 36.6004 16.9629C36.587 16.9274 36.571 16.885 36.4855 16.8059C36.5775 16.8059 36.7614 16.8059 36.7384 16.9124C36.7845 16.9124 36.7614 16.8485 36.7614 16.8485C36.7614 16.7512 36.6863 16.7165 36.609 16.6808C36.5511 16.654 36.492 16.6267 36.4623 16.572C36.3933 16.4658 36.4623 16.3593 36.5316 16.2955C36.5469 16.2884 36.5615 16.2813 36.576 16.2743C36.6484 16.2393 36.7155 16.2069 36.8304 16.1892C36.9203 16.1727 36.968 16.2079 37.0174 16.2444C37.0313 16.2546 37.0453 16.2649 37.0604 16.2743C37.1294 16.4231 37.0836 16.5082 36.8304 16.5082C36.8536 16.6358 37.1294 16.6782 37.2214 16.572C37.2771 16.572 37.2822 16.6032 37.2878 16.6373C37.2914 16.6595 37.2953 16.6829 37.3133 16.6997C37.6472 16.6855 37.6508 16.7178 37.6541 16.7475C37.6558 16.7628 37.6574 16.7775 37.7043 16.7847C37.792 16.8171 37.9764 16.8217 38.1788 16.8268C38.5077 16.8351 38.884 16.8445 38.9695 16.9762C39.0383 17.1039 39.3602 17.1251 39.4754 17.1039C39.4907 17.0753 39.5164 17.0468 39.5593 16.9993C39.5805 16.9757 39.6059 16.9475 39.6363 16.9124C39.6363 16.9336 39.7515 16.8912 39.7515 16.8485C39.7515 16.8485 39.8432 16.8271 39.8205 16.7421C39.9354 16.6997 40.0503 16.4658 40.0503 16.2743C40.0044 15.9127 39.6593 15.7853 39.5902 15.7853C39.5212 15.7638 39.3602 15.7426 39.1995 15.8062C39.0154 15.8915 38.8544 16.0828 38.8314 16.2528C38.7853 16.4446 38.8544 16.5932 39.0153 16.7421C39.0039 16.7421 38.9925 16.7474 38.981 16.7527C38.9695 16.7581 38.9579 16.7635 38.9463 16.7635C38.7853 16.7421 38.1643 16.5508 38.1185 16.5294C38.1326 16.5207 38.1506 16.5111 38.1703 16.5006C38.2467 16.4599 38.3485 16.4057 38.3485 16.3381C38.3254 16.3381 38.3025 16.3487 38.2795 16.3593C38.2565 16.3699 38.2335 16.3805 38.2104 16.3805C38.1517 16.3534 38.1399 16.3176 38.1269 16.2786C38.1196 16.2566 38.112 16.2335 38.0953 16.2104C38.1414 16.168 38.1414 16.0828 38.1185 16.0401C38.1643 15.8915 37.9114 15.7638 37.7734 15.7C37.7734 15.6919 37.77 15.6838 37.7672 15.6769C37.7625 15.6657 37.7592 15.6576 37.7734 15.6576C37.7734 15.6576 37.6124 15.6788 37.5434 15.6788C37.458 15.6591 37.4124 15.6025 37.3511 15.5265C37.3463 15.5206 37.3415 15.5146 37.3365 15.5085C37.3441 15.5085 37.3518 15.5109 37.3594 15.5133C37.3747 15.518 37.3901 15.5228 37.4055 15.5085C37.3133 15.3808 37.3133 15.2108 37.3594 15.0407C37.3594 15.0195 37.3824 14.913 37.4514 14.8706C37.4514 14.9398 37.5057 14.9526 37.5663 14.9669C37.6174 14.979 37.6729 14.9921 37.7043 15.0407C37.7504 14.9769 37.7734 15.232 37.7504 15.2534C37.7631 15.3594 37.8324 15.3936 37.8956 15.4248C37.9463 15.4499 37.9932 15.473 38.0034 15.5299C38.0246 15.4971 38.0546 15.4644 38.0846 15.4316C38.1519 15.358 38.2192 15.2844 38.1875 15.2108C38.1875 15.177 38.1694 15.1366 38.1518 15.0974C38.1251 15.0378 38.0998 14.9812 38.1414 14.9557L38.3714 15.3808C38.3714 15.4723 38.4775 15.4982 38.5716 15.5212C38.6089 15.5304 38.6443 15.539 38.6705 15.5511V15.5085C38.9142 15.2831 38.7098 15.0456 38.606 14.925C38.5727 14.8862 38.5498 14.8596 38.5553 14.8492C38.6228 14.9206 38.6741 14.9994 38.7262 15.0793C38.7984 15.1902 38.8721 15.3033 38.9924 15.4023C39.0754 15.3638 39.1397 15.3948 39.1854 15.4168C39.1903 15.4191 39.195 15.4214 39.1995 15.4235C39.1995 15.3808 39.2224 15.3596 39.2685 15.3172C39.3143 15.1687 39.3086 15.0943 39.2487 15.0148C39.3428 15.0915 39.4546 15.1469 39.6134 15.1469C39.6269 15.1469 39.6422 15.1478 39.6579 15.1486C39.7222 15.1521 39.7928 15.1559 39.7744 15.1045C39.7973 14.9769 39.7054 14.828 39.6363 14.7854C39.7515 14.828 39.9812 14.8918 40.1193 14.7854C40.081 14.6443 39.9956 14.5909 39.915 14.5405C39.8984 14.5301 39.8821 14.5199 39.8664 14.5091C39.9812 14.5303 40.4644 14.5727 40.3954 14.3814C40.3333 14.2666 40.2154 14.2207 40.0751 14.1662C40.0595 14.1601 40.0435 14.1539 40.0273 14.1475C40.0695 14.1308 40.1211 14.1185 40.1751 14.1055C40.3275 14.0691 40.4994 14.028 40.5335 13.871C40.4183 13.8283 40.2342 13.7859 40.0732 13.7859C40.3032 13.7433 40.6022 13.5732 40.6254 13.4456C40.4644 13.3817 40.2574 13.3817 40.0044 13.3817H40.0044C40.2342 13.3391 40.6022 13.169 40.6483 12.9137C40.5976 12.9059 40.5842 12.8953 40.5737 12.887C40.5558 12.8728 40.5469 12.8657 40.3722 12.8925C40.6022 12.7651 40.7864 12.5524 40.7632 12.3609C40.6691 12.3609 40.6231 12.3274 40.5822 12.2976C40.5431 12.2692 40.5086 12.2441 40.4413 12.2544C40.7403 12.0417 40.9474 11.7442 40.7174 11.5739C40.5335 11.7654 39.6824 12.2759 39.3602 12.4671C39.4275 12.4188 39.5124 12.3609 39.6073 12.2961C40.097 11.962 40.8554 11.4447 40.8554 11.1061C40.8554 10.9785 40.7864 10.7234 40.6022 10.7019C40.5085 10.948 39.9672 11.4304 39.5367 11.814C39.3346 11.9941 39.1569 12.1525 39.0614 12.2544C39.0614 12.2544 38.9924 12.2332 38.9924 12.1908C38.9234 12.3821 38.7395 12.5948 38.5095 12.701C38.5095 12.6586 38.5095 12.5948 38.4634 12.5948C38.4071 12.7407 38.2678 12.8458 38.1297 12.9501C37.986 13.0585 37.8434 13.1661 37.7965 13.3179C37.7188 13.4433 37.8046 13.5537 37.8886 13.6617C37.9042 13.6819 37.9199 13.702 37.9343 13.7221C37.9804 13.7647 37.9804 13.871 37.9114 13.9134C37.7965 13.9986 37.6814 14.041 37.5204 14.0622C37.4285 14.0622 37.3133 13.9986 37.2675 13.9134C37.4514 13.8495 37.4743 13.7647 37.4285 13.5732C37.3133 13.6371 37.1294 13.6583 36.9226 13.5732C36.9304 13.5714 36.9389 13.5696 36.9479 13.5677C37.0443 13.547 37.1965 13.5143 37.1753 13.3391C37.0375 13.4456 36.8994 13.4029 36.8075 13.2967C36.7384 13.0202 36.8536 12.7439 37.0604 12.5312C37.093 12.5312 37.1169 12.5338 37.1393 12.5363C37.1802 12.5409 37.2161 12.5449 37.2904 12.5312C37.4285 12.4671 37.6124 12.4885 37.7504 12.5312C37.7504 12.5652 37.7541 12.5856 37.757 12.6019C37.7614 12.6264 37.7642 12.6417 37.7504 12.68C37.9987 12.5387 37.7712 12.4853 37.6079 12.447C37.5745 12.4391 37.5438 12.4319 37.5204 12.4247C37.6719 12.3647 37.7776 12.4176 37.8877 12.4728C38.0118 12.535 38.1414 12.5999 38.3485 12.5098C38.4173 12.4671 38.4866 12.3821 38.5095 12.2971L38.4634 12.3185C38.3376 12.4995 38.1777 12.4446 37.9994 12.3834C37.8844 12.3439 37.7617 12.3018 37.6356 12.3185C37.7504 12.2544 38.0724 12.2332 38.1414 12.3397C38.2334 12.2759 38.2334 12.1482 38.2104 12.0417C38.1185 11.9355 37.9575 11.9143 37.8424 11.9143C37.8237 11.8451 37.7898 11.8322 37.753 11.8183C37.7446 11.8151 37.7361 11.8118 37.7275 11.8078V11.7654C37.9575 11.7654 38.1414 11.6802 38.2795 11.5951C38.3714 11.5103 38.3944 11.4251 38.3714 11.3188C38.3638 11.2833 38.3459 11.2502 38.3279 11.217C38.2922 11.1509 38.2564 11.0847 38.3024 10.9997C38.388 11.0472 38.4737 11.0712 38.5689 11.0979C38.6015 11.1071 38.6352 11.1165 38.6705 11.1273C38.6934 11.255 38.6934 11.4465 38.6014 11.5315C38.4697 11.6684 38.5618 11.74 38.6502 11.8087C38.6853 11.836 38.7199 11.8628 38.7395 11.8931C38.7354 11.9044 38.732 11.9151 38.7288 11.9251C38.7141 11.9713 38.704 12.0031 38.6473 12.0205L38.6705 12.0417C38.746 12.0417 38.7749 12.0131 38.8211 11.9676C38.8312 11.9576 38.842 11.9469 38.8544 11.9355C38.9095 11.8743 38.8696 11.8327 38.8282 11.7896C38.7832 11.7427 38.7365 11.6941 38.8083 11.6166C38.8773 11.7016 38.9924 11.7016 39.0383 11.7016C39.0653 11.7016 39.0921 11.6943 39.1145 11.6882C39.1303 11.6838 39.1438 11.6802 39.1534 11.6802C39.1763 11.7016 39.1763 11.7228 39.1763 11.7866V11.7866H39.1995C39.2088 11.752 39.2258 11.7244 39.2411 11.6996C39.2634 11.6635 39.2821 11.6331 39.2685 11.5951C39.243 11.5011 39.1894 11.5176 39.1272 11.5368C39.0768 11.5523 39.0209 11.5695 38.9695 11.5315C38.9463 11.4889 39.0153 11.4039 39.0844 11.3612C39.0897 11.3415 39.0975 11.3218 39.1052 11.3023C39.1307 11.2379 39.155 11.1763 39.0844 11.1273C39.0494 11.0466 38.9749 11.0394 38.8907 11.0313C38.8639 11.0287 38.8361 11.026 38.8083 11.0209C38.7283 11.0209 38.6824 10.9737 38.6312 10.921C38.5791 10.8676 38.5215 10.8084 38.4173 10.787C38.3761 10.7488 38.3265 10.7717 38.2736 10.7962C38.2382 10.8125 38.2013 10.8296 38.1643 10.8296C38.1464 10.8462 38.1214 10.853 38.0949 10.8603C38.0535 10.8717 38.0084 10.884 37.9804 10.9358C37.9281 11.0423 37.99 11.14 38.0514 11.2368C38.1249 11.3528 38.1978 11.4676 38.0724 11.5951C38.043 11.602 38.0064 11.6175 37.9659 11.6348C37.8797 11.6715 37.7753 11.716 37.6814 11.7016C37.6908 11.632 37.7194 11.5659 37.7485 11.4991C37.7904 11.4025 37.833 11.3043 37.8195 11.1912C37.8026 11.1443 37.7609 11.1318 37.7217 11.1201C37.7075 11.1159 37.6936 11.1118 37.6814 11.1061C37.6096 11.0396 37.5377 11.0562 37.4883 11.0676C37.4586 11.0745 37.4371 11.0795 37.4285 11.0635C37.4203 11.056 37.418 11.0538 37.4183 11.0522C37.4189 11.0493 37.4285 11.0483 37.4285 11.0209C37.4514 10.9785 37.4743 10.9146 37.4055 10.9146L37.3824 10.8934V10.8508L37.4514 10.872V10.7234L37.3824 10.7658L37.4285 10.7019H37.3133H37.2446L37.2904 10.7658L37.1753 10.7446V10.872L37.2904 10.8508V10.9146L37.2675 10.8934C37.1985 10.8934 37.1985 10.9997 37.2214 11.0209C37.2446 11.0423 37.2446 11.0423 37.2446 11.0635C37.2276 11.0714 37.2013 11.0706 37.1691 11.0696C37.1139 11.068 37.0412 11.0658 36.9685 11.1061C36.9597 11.1115 36.9514 11.1165 36.9434 11.1213C36.8886 11.1543 36.8536 11.1753 36.8536 11.2124C36.8536 11.321 36.8906 11.416 36.9268 11.5089C36.9543 11.5796 36.9815 11.6492 36.9914 11.7228C36.8536 11.7016 36.7155 11.6802 36.6004 11.5739V11.5951C36.4986 11.5575 36.3965 11.4863 36.3106 11.4263C36.2996 11.4186 36.2889 11.4111 36.2784 11.4039C36.2942 11.331 36.3207 11.2582 36.3479 11.1837C36.4 11.0406 36.4545 10.8911 36.4394 10.7234C36.4394 10.6652 36.3964 10.6368 36.3472 10.6043C36.3244 10.5892 36.3003 10.5733 36.2784 10.5531C36.1677 10.489 36.0819 10.5175 36.0111 10.5411C35.9643 10.5566 35.924 10.57 35.8874 10.5531C35.8874 10.5107 35.8874 10.5107 35.9104 10.4892C35.9565 10.4256 35.9565 10.298 35.8645 10.2765H35.8413L35.8645 10.2127L35.9565 10.2765V10.0853L35.8413 10.1065L35.8874 10H35.7494L35.6574 10.0214L35.7035 10.1277L35.5655 10.1065V10.2765L35.6804 10.2341L35.7035 10.2553L35.6574 10.298C35.6021 10.298 35.6061 10.3805 35.6098 10.457C35.6107 10.4757 35.6116 10.494 35.6116 10.5107C35.6574 10.5107 35.6804 10.5319 35.6574 10.5531C35.635 10.5739 35.5688 10.5693 35.4934 10.5641C35.4144 10.5587 35.3255 10.5526 35.2667 10.5743C35.1977 10.5957 35.1286 10.6595 35.1057 10.7446C35.0919 10.8971 35.1521 11.0345 35.2077 11.1612C35.2451 11.2464 35.2804 11.3269 35.2896 11.4039C35.2715 11.4207 35.2533 11.4383 35.2349 11.4561C35.1604 11.5284 35.083 11.6035 34.9906 11.6378V11.5951C34.8986 11.7016 34.7606 11.7442 34.5996 11.7654C34.6145 11.7171 34.6368 11.6643 34.6599 11.6092C34.7082 11.4945 34.7606 11.3699 34.7606 11.255C34.7271 11.2239 34.6935 11.2042 34.651 11.1792C34.6352 11.17 34.6182 11.16 34.5996 11.1485C34.5122 11.1082 34.4432 11.1276 34.3928 11.1417C34.3636 11.1499 34.3405 11.1564 34.3237 11.1485C34.3237 11.1061 34.3467 11.1061 34.3467 11.1061C34.3696 11.0635 34.3696 10.9785 34.3006 10.9573L34.2776 10.9358L34.3006 10.9146L34.4157 10.9573L34.3928 10.8296L34.3006 10.8084L34.3467 10.7446H34.2315L34.1396 10.7658L34.1625 10.8296H34.0937L34.1166 10.9573L34.1625 10.9146V10.9358L34.1857 10.9573C34.1167 10.9573 34.1167 11.0635 34.1396 11.0849C34.1396 11.0849 34.1857 11.1273 34.1625 11.1485C34.1453 11.1566 34.1151 11.1526 34.0792 11.1479C34.0195 11.14 33.9441 11.1301 33.8866 11.17C33.8775 11.1742 33.8683 11.1776 33.8591 11.1809C33.8223 11.1945 33.7855 11.2081 33.7486 11.2762C33.7486 11.3729 33.7931 11.4695 33.8358 11.5623C33.8683 11.6328 33.8998 11.7011 33.9098 11.7654C33.7903 11.8021 33.6707 11.7433 33.5811 11.6992C33.5672 11.6923 33.5541 11.6859 33.5418 11.6802C33.4184 11.555 33.48 11.448 33.5461 11.3331C33.6034 11.2336 33.6641 11.1281 33.6108 10.9997C33.5843 10.963 33.5351 10.9545 33.4849 10.9458C33.4477 10.9393 33.41 10.9328 33.3805 10.9146C33.3615 10.9088 33.3407 10.8981 33.3192 10.887C33.2626 10.8578 33.2008 10.8259 33.1508 10.872C33.0787 10.9006 33.0297 10.9547 32.9851 11.0039C32.9301 11.0646 32.8819 11.1178 32.8056 11.1061C32.7636 11.1191 32.7236 11.1261 32.6865 11.1326C32.6019 11.1475 32.5316 11.1598 32.4837 11.2338C32.4378 11.2974 32.4837 11.4039 32.5298 11.4675C32.5407 11.4827 32.553 11.498 32.565 11.513C32.6033 11.5607 32.6392 11.6053 32.6217 11.6378C32.5798 11.6765 32.5236 11.6623 32.4727 11.6494C32.4117 11.634 32.3582 11.6205 32.3456 11.7016C32.359 11.7506 32.3798 11.7855 32.3996 11.8185C32.4141 11.8428 32.428 11.866 32.4378 11.8931H32.4607C32.4607 11.8768 32.4574 11.8605 32.4545 11.8466C32.4499 11.8241 32.4466 11.8078 32.4607 11.8078C32.4767 11.7782 32.504 11.7899 32.5268 11.7997C32.5367 11.8039 32.5458 11.8078 32.5527 11.8078C32.5728 11.8017 32.5967 11.7973 32.6222 11.7926C32.6846 11.7812 32.7567 11.7681 32.8056 11.7228C32.8776 11.8004 32.8308 11.8491 32.7858 11.896C32.7444 11.9391 32.7045 11.9807 32.7595 12.0417C32.8286 12.1058 32.8517 12.1268 32.9666 12.1268V12.1058C32.9208 12.0844 32.8976 12.0417 32.8976 12.0205C32.9144 11.9663 32.9526 11.9177 32.9888 11.8716C33.0518 11.7914 33.1088 11.7189 33.0356 11.6378C32.9208 11.5315 32.8747 11.3827 32.9208 11.255C32.9869 11.1784 33.0887 11.1569 33.1919 11.1351C33.2322 11.1266 33.2728 11.118 33.3115 11.1061C33.3575 11.177 33.3218 11.2479 33.2861 11.3188C33.2682 11.3542 33.2504 11.3897 33.2427 11.4251C33.1966 11.5103 33.2427 11.5951 33.3347 11.6802C33.4727 11.7654 33.6337 11.8078 33.8405 11.8078C33.8464 11.8132 33.8536 11.8186 33.8609 11.8239C33.8825 11.8399 33.904 11.8558 33.8866 11.8717C33.8682 11.8887 33.8461 11.8955 33.8263 11.9017C33.7965 11.9109 33.7718 11.9186 33.7718 11.9569C33.7392 11.9669 33.7054 11.9757 33.6717 11.9845C33.5629 12.0129 33.4564 12.0406 33.4037 12.1058C33.3576 12.212 33.3805 12.3397 33.4727 12.4035C33.5186 12.3609 33.6337 12.2971 33.7257 12.3185C33.7802 12.3436 33.8349 12.3464 33.8847 12.3489C33.9188 12.3507 33.9506 12.3523 33.9786 12.3609C33.8715 12.3609 33.7613 12.4046 33.6546 12.447C33.4636 12.5228 33.2834 12.5943 33.1508 12.4035H33.1276C33.1276 12.4671 33.1737 12.5524 33.2656 12.5736C33.4957 12.68 33.6798 12.5948 33.7947 12.4885C33.844 12.4885 33.8998 12.4824 33.9517 12.4767C33.9966 12.4717 34.0385 12.4671 34.0705 12.4671C33.9327 12.4885 33.5876 12.6586 33.9327 12.7439C33.9296 12.7381 33.9265 12.7326 33.9236 12.7275C33.9048 12.6949 33.8929 12.6743 33.9327 12.6374C34.0244 12.5736 34.1857 12.5312 34.3467 12.5524C34.4265 12.5892 34.4718 12.5781 34.5426 12.5606C34.5533 12.5579 34.5646 12.5552 34.5767 12.5524C34.7835 12.7863 34.9677 13.0202 34.8296 13.3391C34.7147 13.4456 34.6228 13.4456 34.4615 13.3603C34.4386 13.5732 34.6686 13.5944 34.7606 13.5944C34.6228 13.6795 34.4847 13.6795 34.3237 13.6795H34.3237C34.3237 13.6485 34.2991 13.6402 34.2679 13.6296C34.2564 13.6256 34.244 13.6214 34.2315 13.6156C34.2086 13.8283 34.2547 13.8922 34.4157 13.9774C34.3696 14.0622 34.2776 14.1475 34.1625 14.1263C34.0244 14.1263 33.8866 14.0622 33.7718 13.9774C33.7257 13.9348 33.7027 13.8283 33.7257 13.7859C33.7347 13.7759 33.7438 13.7659 33.753 13.7559C33.8606 13.6381 33.9696 13.5189 33.8637 13.3817C33.7905 13.2239 33.6397 13.1139 33.4937 13.0073C33.3642 12.9128 33.2384 12.821 33.1737 12.701C33.1452 12.701 33.1343 12.7174 33.1194 12.7399C33.1101 12.7538 33.0993 12.7701 33.0817 12.7863C32.9016 12.7121 32.7736 12.5416 32.6677 12.4005C32.6519 12.3794 32.6366 12.359 32.6217 12.3397C32.5985 12.3821 32.5066 12.3185 32.5066 12.2759C32.3809 12.1505 32.1288 12.0026 31.8654 11.8479C31.5027 11.6351 31.1183 11.4095 31.0117 11.2124C30.8963 11.2277 30.8755 11.3085 30.856 11.3843C30.8483 11.4143 30.8408 11.4434 30.8278 11.4675C30.8278 11.6529 31.0329 11.8383 31.293 12.0131C31.2539 12.0651 31.2174 12.1083 31.186 12.1455C31.0676 12.2856 31.0202 12.3417 31.1729 12.4671C31.1326 12.4578 31.1275 12.4771 31.1192 12.5087C31.1085 12.5494 31.0924 12.6108 30.9887 12.6586C30.9887 12.9216 31.3479 13.0256 31.4872 13.066C31.517 13.0746 31.5367 13.0803 31.5407 13.084C31.5005 13.084 31.4433 13.0788 31.3791 13.0729C31.2599 13.062 31.1164 13.0489 31.0117 13.0628C30.9658 13.2755 31.4027 13.4668 31.6558 13.5306C31.5638 13.5412 31.466 13.5412 31.3653 13.5412C31.2647 13.5412 31.1612 13.5412 31.0578 13.5518C31.0117 13.7007 31.4027 13.9134 31.5868 13.9134C31.5067 13.924 31.4323 13.9452 31.3579 13.9664C31.2827 13.9877 31.2077 14.0091 31.1268 14.0196C31.1648 14.195 31.3587 14.2259 31.5416 14.2551C31.5807 14.2613 31.6194 14.2675 31.6558 14.2749C31.643 14.282 31.6294 14.2894 31.6152 14.2971C31.5013 14.3585 31.3491 14.4405 31.2878 14.5727C31.4639 14.6912 31.6177 14.6654 31.7338 14.6459C31.7844 14.6374 31.8278 14.6301 31.8627 14.6365C31.8431 14.6455 31.8236 14.6537 31.8046 14.6617C31.689 14.7102 31.5901 14.7517 31.6097 14.9342C31.7249 14.9981 31.9778 14.9557 32.1156 14.913C32.1156 14.913 31.9088 15.0619 31.9317 15.2534C32.1617 15.3384 32.4837 15.1257 32.5756 14.9769C32.4378 15.232 32.4146 15.3172 32.4837 15.4235C32.5298 15.4447 32.5298 15.4873 32.5298 15.5299C32.5579 15.5037 32.6036 15.5016 32.6613 15.499C32.6975 15.4973 32.7384 15.4955 32.7827 15.4873C32.8976 15.4235 33.0127 15.1896 33.0127 15.1896C33.0107 15.195 33.0083 15.2015 33.0055 15.2087C32.9757 15.2859 32.9094 15.4574 33.0356 15.5935L33.0588 15.6362C33.0883 15.6252 33.1223 15.6171 33.1566 15.6089C33.2559 15.5852 33.3576 15.5608 33.3576 15.4661C33.4319 15.3632 33.4761 15.2328 33.5146 15.1192C33.5239 15.0919 33.5328 15.0655 33.5418 15.0407C33.6052 15.0642 33.5915 15.1007 33.5743 15.1466C33.5603 15.1837 33.544 15.227 33.5647 15.2746C33.513 15.3703 33.6034 15.4539 33.6809 15.5256C33.7069 15.5496 33.7313 15.5722 33.7486 15.5935C33.7584 15.5485 33.8013 15.5225 33.8474 15.4946C33.91 15.4567 33.9786 15.4152 33.9786 15.3172C33.9644 15.2644 33.9766 15.2199 33.9879 15.1785C33.9949 15.1531 34.0015 15.1288 34.0015 15.1045C34.0015 15.0939 34.0015 15.0939 34.0044 15.0966C34.0073 15.0992 34.013 15.1045 34.0244 15.1045C34.0473 15.0413 34.104 15.0302 34.1582 15.0197C34.2134 15.0089 34.2661 14.9987 34.2776 14.9342L34.3467 15.0195C34.3513 15.0366 34.3564 15.0544 34.3617 15.0727C34.4085 15.2356 34.4662 15.4363 34.3006 15.5511C34.3696 15.5723 34.3928 15.5723 34.4386 15.5511C34.3928 15.6362 34.3006 15.7 34.2086 15.7426C34.1548 15.7177 34.1167 15.7219 34.0851 15.7255C34.0627 15.728 34.0436 15.7301 34.0244 15.7212C34.0244 15.7212 34.0476 15.7426 34.0476 15.7638C33.8176 15.8062 33.6337 15.9553 33.6566 16.1254C33.6566 16.1466 33.6566 16.2528 33.6798 16.2743C33.6751 16.2871 33.6714 16.3 33.6677 16.3128C33.6529 16.3638 33.6381 16.4148 33.5647 16.4658C33.521 16.4658 33.4866 16.4487 33.4613 16.4361C33.4467 16.4289 33.4351 16.4231 33.4266 16.4231C33.4091 16.4879 33.4852 16.5157 33.5631 16.5441C33.5874 16.5529 33.6118 16.5619 33.6337 16.572C33.5613 16.5887 33.0894 16.7241 32.7798 16.8745ZM31.3508 12.0512C31.3313 12.0385 31.312 12.0258 31.293 12.0131C31.3063 11.9954 31.3199 11.9767 31.3336 11.9569L31.3508 12.0512ZM31.3508 12.0512C31.4792 12.1344 31.6177 12.2149 31.7498 12.2917C31.9537 12.4104 32.1422 12.52 32.2537 12.6162L31.3568 12.0844L31.3508 12.0512ZM32.7798 16.8745L30.9887 14.3602L30.9429 14.4876L32.5756 16.9974C32.6245 16.9567 32.6962 16.915 32.7798 16.8745ZM39.0748 14.8429C39.0802 14.8478 39.0856 14.8527 39.0909 14.8574C39.1618 14.9216 39.2142 14.969 39.2487 15.0148C39.1914 14.9681 39.1405 14.9135 39.0896 14.8588C39.0847 14.8535 39.0797 14.8482 39.0748 14.8429ZM38.9005 14.6791C38.9671 14.7449 39.0251 14.798 39.0748 14.8429C39.0203 14.7845 38.9649 14.7268 38.9005 14.6791ZM37.0022 18.0643C37.0038 18.0565 37.0008 18.0482 36.9914 18.0395C36.9885 18.0435 36.9855 18.0476 36.9825 18.0519C36.9698 18.0697 36.9555 18.0898 36.9392 18.11C36.9056 18.1228 36.8711 18.1302 36.8711 18.1302C36.8711 18.1302 36.8792 18.1285 36.8994 18.1247C36.9122 18.1223 36.9253 18.1176 36.9385 18.1109C36.9387 18.1106 36.939 18.1103 36.9392 18.11C36.9404 18.1095 36.9417 18.109 36.9429 18.1085C36.9629 18.0977 36.9829 18.0825 37.0022 18.0643ZM35.0825 11.7228C35.1745 11.6378 35.2896 11.5951 35.4045 11.5739C35.4965 11.5527 35.6116 11.5315 35.7265 11.5527C35.7469 11.5574 35.7696 11.5611 35.7931 11.5649C35.8753 11.5781 35.9667 11.5929 36.0026 11.6592C36.0716 11.7228 36.0716 11.8505 36.0484 11.9355C36.0368 11.9635 36.0254 11.9915 36.014 12.0195C35.913 12.2676 35.8134 12.5123 35.5655 12.7224C35.3125 12.4247 35.0825 12.1058 35.0825 11.8931C35.0825 11.8802 35.0783 11.8634 35.0737 11.845C35.0632 11.8028 35.0506 11.7525 35.0825 11.7228ZM47.5492 59.853L45.5713 59.0022L45.2952 59.8956L47.1811 60.7888L47.5492 59.853ZM47.1582 55.0252L49.2512 55.9823L48.0092 58.1517L48.3311 58.3005L47.664 59.5765L45.7323 58.7259L47.1582 55.0252ZM55.368 59.9589C57.4378 59.9589 59.1167 58.3852 59.1167 56.4924C59.1167 54.5781 57.4378 53.0256 55.368 53.0256C54.655 53.0256 53.965 53.2171 53.3899 53.5574L54.057 54.1315L53.0218 55.0037L52.3779 54.408C51.9181 54.9823 51.6191 55.7054 51.6191 56.4924C51.6191 58.3852 53.2979 59.9589 55.368 59.9589Z" fill="#FFFCF9"/>
</svg>
