<svg width="56" height="50" viewBox="0 0 56 50" fill="none" xmlns="http://www.w3.org/2000/svg">
<path d="M28.0001 49.8845C28.7973 49.8845 29.5659 49.5957 30.1649 49.071C32.4272 47.0929 34.6083 45.2339 36.5326 43.5942L36.5424 43.5856C42.1842 38.7778 47.056 34.6259 50.4458 30.5358C54.235 25.9634 56 21.6282 56 16.8922C56 12.2907 54.4222 8.04559 51.5575 4.93823C48.6586 1.79413 44.681 0.0625 40.356 0.0625C37.1234 0.0625 34.1631 1.08447 31.5573 3.09979C30.2422 4.11707 29.0502 5.36206 28.0001 6.81427C26.9495 5.36206 25.7579 4.11707 24.4424 3.09979C21.8366 1.08447 18.8762 0.0625 15.6437 0.0625C11.3191 0.0625 7.34103 1.79413 4.44218 4.93823C1.5775 8.04559 0.000106812 12.2907 0.000106812 16.8922C0.000106812 21.6282 1.76463 25.9634 5.55387 30.5354C8.94363 34.6259 13.8151 38.7774 19.456 43.5848C21.3837 45.2271 23.5682 47.0891 25.8356 49.0719C26.4342 49.5957 27.2032 49.8845 28.0001 49.8845ZM40.356 3.3429C43.7539 3.3429 46.8753 4.69897 49.1461 7.16162C51.4507 9.66144 52.72 13.117 52.72 16.8922C52.72 20.8754 51.2396 24.4377 47.9204 28.4427C44.7122 32.314 39.9403 36.3806 34.4151 41.0892L34.4049 41.0978C32.4733 42.744 30.2837 44.6102 28.0048 46.6028C25.7122 44.6063 23.5191 42.7371 21.5837 41.0884C16.059 36.3797 11.2875 32.314 8.07932 28.4427C4.76048 24.4377 3.28007 20.8754 3.28007 16.8922C3.28007 13.117 4.54942 9.66144 6.85398 7.16162C9.12436 4.69897 12.2462 3.3429 15.6437 3.3429C18.1328 3.3429 20.4182 4.13416 22.436 5.69446C24.2343 7.08557 25.487 8.84412 26.2214 10.0746C26.5991 10.7073 27.2639 11.085 28.0001 11.085C28.7362 11.085 29.401 10.7073 29.7787 10.0746C30.5127 8.84412 31.7654 7.08557 33.5641 5.69446C35.5819 4.13416 37.8673 3.3429 40.356 3.3429Z" fill="black"/>
</svg>
