<svg width="326" height="345" viewBox="0 0 326 345" fill="none" xmlns="http://www.w3.org/2000/svg">
<path d="M325.414 126.34C325.557 130.135 325.056 135.721 323.91 143.098C322.836 150.402 320.329 158.853 316.391 168.449C312.452 178.046 306.365 188.143 298.129 198.742C286.957 211.704 273.78 222.196 258.598 230.217C242.055 238.954 224.473 243.716 205.854 244.504C186.518 245.148 167.79 242.141 149.672 235.48C139.288 231.255 131.661 227.495 126.791 224.201C119.844 235.516 112.862 246.402 105.844 256.857C103.982 259.65 101.26 263.661 97.6797 268.889C93.9557 274.188 89.8379 279.738 85.3262 285.539C80.6712 291.34 76.2669 296.496 72.1133 301.008C68.0312 305.52 65.0234 308.706 63.0898 310.568C55.7852 317.873 48.8027 324.068 42.1426 329.152C36.9863 333.163 31.472 336.743 25.5996 339.895C22.6634 341.398 19.5482 342.616 16.2539 343.547C12.8164 344.478 9.30729 344.442 5.72656 343.439L5.83398 343.225C5.69076 343.153 5.58333 343.117 5.51172 343.117C3.07682 341.47 1.5013 338.749 0.785156 334.953C-1.14844 322.85 4.58073 303.622 17.9727 277.268C31.4362 250.913 51.3451 219.654 77.6992 183.488C94.0273 160.214 111.394 139.266 129.799 120.646C147.702 102.671 166 87.8828 184.691 76.2812C186.052 72.056 187.198 68.1172 188.129 64.4648C188.129 64.3932 188.165 64.2858 188.236 64.1426C188.881 61.4928 189.418 59.1654 189.848 57.1602C189.991 56.3724 190.098 55.6562 190.17 55.0117C190.385 53.8659 190.564 52.8991 190.707 52.1113C192.426 42.2285 192.462 33.4915 190.814 25.9004C189.239 20.1712 185.98 15.373 181.039 11.5059C176.098 7.71029 170.512 5.3112 164.281 4.30859C164.281 4.23698 164.281 4.20117 164.281 4.20117C164.281 4.12956 164.281 4.09375 164.281 4.09375C146.378 1.3724 127.722 3.09115 108.314 9.25C88.9785 15.3372 71.6478 25.041 56.3223 38.3613C37.7741 55.1191 28.7507 72.1276 29.252 89.3867C29.3952 93.3971 30.7559 96.7988 33.334 99.5918C34.1934 100.594 35.196 101.346 36.3418 101.848C39.9941 103.495 44.0046 103.387 48.373 101.525C51.3092 100.523 54.9974 97.4434 59.4375 92.2871C63.9492 87.0592 68.2461 78.3223 72.3281 66.0762C72.3997 65.7181 72.5788 65.4674 72.8652 65.3242C73.2233 65.1094 73.5814 65.0378 73.9395 65.1094C74.2975 65.2526 74.5482 65.4674 74.6914 65.7539C74.9062 66.0404 74.9779 66.3626 74.9062 66.7207C74.8346 66.9355 74.6556 68.4395 74.3691 71.2324C74.1543 74.0254 74.2259 77.3197 74.584 81.1152C75.0137 84.9108 76.1237 88.3841 77.9141 91.5352C79.776 94.6862 82.7122 96.763 86.7227 97.7656C93.2396 98.7682 98.8255 96.5124 103.48 90.998C107.992 84.9108 110.57 77.9284 111.215 70.0508C111.931 62.1016 110.535 54.8327 107.025 48.2441C101.941 39.5072 94.4212 35.5684 84.4668 36.4277C84.1087 36.4277 83.7865 36.3203 83.5 36.1055C83.2135 35.8906 83.0345 35.5684 82.9629 35.1387C82.9629 34.7806 83.0703 34.4583 83.2852 34.1719C83.5 33.8854 83.8223 33.7064 84.252 33.6348C95.3522 32.7038 103.731 37.1439 109.389 46.9551C113.184 53.9733 114.724 61.7077 114.008 70.1582C113.292 78.6087 110.499 86.0924 105.629 92.6094C100.329 99.0547 93.8483 101.669 86.1855 100.451C80.3132 98.9473 76.3743 95.7604 74.3691 90.8906C72.4355 86.0208 71.5046 81.151 71.5762 76.2812C65.5605 90.7474 58.1842 99.9857 49.4473 103.996C46.7975 105.142 44.2194 105.715 41.7129 105.715C39.4212 105.715 37.237 105.249 35.1602 104.318C33.7279 103.674 32.4388 102.707 31.293 101.418C28.2852 98.1237 26.6738 94.1849 26.459 89.6016C25.9577 71.4115 35.3392 53.651 54.6035 36.3203C70.1439 22.7852 87.7969 12.9023 107.562 6.67188C127.328 0.369792 146.378 -1.38477 164.711 1.4082V1.19336C171.371 2.19596 177.53 4.63086 183.188 8.49805C188.917 12.3652 193.178 17.5931 195.971 24.1816C198.907 32.7754 199.91 42.4076 198.979 53.0781C198.907 53.7227 198.799 54.4746 198.656 55.334C198.585 56.265 198.477 57.3392 198.334 58.5566C198.048 60.8483 197.654 63.4622 197.152 66.3984C197.009 67.401 196.83 68.3678 196.615 69.2988C209.363 62.4238 221.573 57.4824 233.246 54.4746C240.336 52.3978 248.965 51.3594 259.135 51.3594C269.376 51.3594 279.509 53.5078 289.535 57.8047C299.633 62.0299 308.048 69.5853 314.779 80.4707C321.583 91.2845 325.128 106.574 325.414 126.34ZM95.1016 250.09C108.207 228.749 121.241 206.512 134.203 183.381C140.648 171.851 146.843 160.357 152.787 148.898C158.731 137.368 164.245 126.018 169.33 114.846C170.691 111.91 172.589 107.577 175.023 101.848C177.458 96.0469 179.893 89.8164 182.328 83.1562C182.686 82.2253 183.008 81.2943 183.295 80.3633C165.749 91.6068 148.598 105.679 131.84 122.58C113.507 141.057 96.2116 161.896 79.9551 185.1C59.6882 212.886 43.7897 236.877 32.2598 257.072C20.7298 277.196 12.7448 293.667 8.30469 306.486C3.9362 319.305 2.32487 328.615 3.4707 334.416C3.97201 337.281 5.04622 339.322 6.69336 340.539L6.80078 340.432C9.52214 341.219 12.3867 341.184 15.3945 340.324C18.3307 339.393 21.1237 338.14 23.7734 336.564C29.1445 333.27 34.1217 329.403 38.7051 324.963C44.5059 319.377 50.6289 312.753 57.0742 305.09C58.793 303.085 61.4785 299.755 65.1309 295.1C68.7832 290.373 72.6504 285.074 76.7324 279.201C80.8145 273.329 84.4668 267.707 87.6895 262.336C88.334 261.333 88.9427 260.331 89.5156 259.328C91.9505 255.318 93.8125 252.238 95.1016 250.09ZM295.229 180.588C301.745 169.774 306.293 159.712 308.871 150.402C311.521 141.092 312.953 133.072 313.168 126.34C313.383 119.536 313.168 114.523 312.523 111.301C310.017 95.2591 305.076 83.2637 297.699 75.3145C290.323 67.3652 282.302 62.1374 273.637 59.6309C264.971 57.1243 257.38 56.0143 250.863 56.3008C250.004 56.3008 248.965 56.3366 247.748 56.4082C242.377 56.7663 237.042 57.5898 231.742 58.8789C221.501 61.0273 209.542 65.6823 195.863 72.8438C194.932 77.2122 193.822 81.6882 192.533 86.2715C190.456 93.4329 188.344 100.057 186.195 106.145C184.047 112.16 182.328 116.708 181.039 119.787C176.312 131.532 171.049 143.312 165.248 155.129C159.447 166.945 153.288 178.69 146.771 190.363C140.756 201.105 134.597 211.633 128.295 221.945C128.367 221.945 128.438 221.981 128.51 222.053C131.589 223.915 135.098 225.741 139.037 227.531C151.713 233.26 164.89 236.662 178.568 237.736C192.318 238.739 205.961 237.521 219.496 234.084C228.52 231.721 235.681 229.214 240.98 226.564C246.28 223.843 249.825 221.838 251.615 220.549C251.902 220.406 252.152 220.262 252.367 220.119C269.197 210.451 283.484 197.274 295.229 180.588Z" fill="#707070" fill-opacity="0.2"/>
</svg>
