<svg width="482" height="328" viewBox="0 0 482 328" fill="none" xmlns="http://www.w3.org/2000/svg">
<path d="M481.135 53.8867C481.35 54.2448 481.385 54.6029 481.242 54.9609C481.171 55.319 480.956 55.5697 480.598 55.7129C480.24 55.9277 479.882 55.9993 479.523 55.9277C479.165 55.7845 478.915 55.5339 478.771 55.1758C474.26 47.1549 467.385 42.9297 458.146 42.5C454.423 42.0703 448.944 43.0371 441.711 45.4004C434.549 47.7637 425.633 52.8125 414.963 60.5469C404.292 68.2812 391.867 80.0977 377.688 95.9961C363.508 111.895 347.538 133.2 329.777 159.912C297.479 210.615 269.585 249.287 246.096 275.928C230.985 293.115 219.204 304.323 210.754 309.551C210.754 309.551 210.002 310.016 208.498 310.947C207.066 311.95 205.168 312.881 202.805 313.74C200.513 314.6 198.078 314.993 195.5 314.922C192.922 314.85 190.451 313.883 188.088 312.021C185.796 310.16 183.898 307.008 182.395 302.568C179.96 292.471 179.351 282.266 180.568 271.953C180.998 267.298 181.499 263.001 182.072 259.062C182.645 255.124 183.111 252.116 183.469 250.039C184.901 242.376 186.62 234.57 188.625 226.621C190.057 221.035 191.597 215.449 193.244 209.863C191.525 212.513 189.842 215.091 188.195 217.598C150.956 276.966 123.133 312.523 104.729 324.268C99.2858 327.275 95.0605 328.099 92.0527 326.738C89.0449 325.449 87.0039 323.229 85.9297 320.078C84.569 316.927 83.8171 311.986 83.6738 305.254C83.5306 298.522 84.39 289.284 86.252 277.539C86.5384 275.247 87.1113 271.523 87.9707 266.367C88.9017 261.211 89.9759 255.553 91.1934 249.395C92.4824 243.236 93.6999 237.471 94.8457 232.1C96.0632 226.729 97.0299 222.682 97.7461 219.961C100.324 209.505 103.117 198.835 106.125 187.949C109.133 177.064 112.284 166.143 115.578 155.186C118.872 144.229 122.274 133.415 125.783 122.744C125.998 122.1 126.213 121.419 126.428 120.703C127.932 116.048 129.436 111.429 130.939 106.846C135.809 92.666 138.924 78.0924 140.285 63.125C140.715 57.1094 140.679 51.6667 140.178 46.7969C138.889 36.556 136.132 28.4993 131.906 22.627C127.753 16.6829 123.205 12.3503 118.264 9.62891C109.67 4.90234 100.432 3.00456 90.5488 3.93555C79.4486 5.00977 68.3483 8.16081 57.248 13.3887C46.1478 18.6165 36.0501 25.8138 26.9551 34.9805C17.9316 44.1471 10.9492 55.1758 6.00781 68.0664C5.36328 69.7852 4.75456 71.8978 4.18164 74.4043C3.68034 76.9108 3.35807 79.1667 3.21484 81.1719C2.92839 90.1953 5.36328 95.4232 10.5195 96.8555C14.888 97.8581 20.1159 96.0677 26.2031 91.4844C32.2904 86.901 37.7689 79.7754 42.6387 70.1074C42.9251 69.5345 43.3906 69.2839 44.0352 69.3555C44.6797 69.4271 45.0736 69.7852 45.2168 70.4297C45.2168 70.5729 45.4316 71.5039 45.8613 73.2227C46.3626 74.9414 47.1146 77.054 48.1172 79.5605C49.1914 82.0671 50.6237 84.5736 52.4141 87.0801C54.276 89.5866 56.5319 91.735 59.1816 93.5254C61.903 95.2441 65.1257 96.1035 68.8496 96.1035C68.9928 96.1035 69.1361 96.1035 69.2793 96.1035C79.1621 95.5306 86.431 90.8398 91.0859 82.0312C94.6667 73.8672 95.2396 65.4167 92.8047 56.6797C90.4414 47.9427 86.3236 40.9961 80.4512 35.8398C77.8014 33.2617 73.8984 31.3639 68.7422 30.1465C63.6576 28.8574 57.6777 30.3613 50.8027 34.6582C50.4447 34.873 50.0866 34.9447 49.7285 34.873C49.3704 34.8014 49.084 34.6224 48.8691 34.3359C48.6543 34.0495 48.5827 33.7272 48.6543 33.3691C48.7259 33.0111 48.9049 32.6888 49.1914 32.4023C60.8646 24.8112 71.8932 25.2767 82.2773 33.7988C88.5078 39.3132 92.9121 46.7611 95.4902 56.1426C98.0684 65.4525 97.4238 74.4759 93.5566 83.2129C88.4004 92.9525 80.3079 98.1445 69.2793 98.7891C69.1361 98.7891 68.9928 98.7891 68.8496 98.7891C63.4785 98.6458 59.0384 97.1061 55.5293 94.1699C52.0202 91.2337 49.2988 87.9036 47.3652 84.1797C45.4316 80.4557 44.1068 77.2331 43.3906 74.5117C39.1654 82.1745 34.2598 88.3333 28.6738 92.9883C23.0879 97.5716 17.86 99.8633 12.9902 99.8633C11.916 99.8633 10.8776 99.7559 9.875 99.541C7.79818 99.2546 5.68555 97.8223 3.53711 95.2441C1.38867 92.5944 0.386068 87.8678 0.529297 81.0645C0.600911 78.8444 0.958984 76.4453 1.60352 73.8672C2.17643 71.2174 2.82096 68.9616 3.53711 67.0996C9.26628 52.0605 17.4661 39.5638 28.1367 29.6094C38.8789 19.6549 50.5879 12.2786 63.2637 7.48047C75.9395 2.61068 88.1139 0.426432 99.7871 0.927734C99.7871 0.927734 101.577 1.10677 105.158 1.46484C108.811 1.82292 113.215 2.96875 118.371 4.90234C123.599 6.83594 128.719 10.0228 133.732 14.4629C138.817 18.8314 142.899 24.9902 145.979 32.9395C149.13 40.8887 150.419 51.0579 149.846 63.4473C149.774 69.9642 149.344 76.0156 148.557 81.6016C147.84 87.1875 147.16 91.4128 146.516 94.2773C145.441 99.6484 144.117 105.055 142.541 110.498C140.965 115.726 139.39 121.061 137.814 126.504C134.878 136.1 131.942 145.768 129.006 155.508C128.648 156.654 128.326 157.799 128.039 158.945C124.745 169.902 121.486 180.752 118.264 191.494C116.975 195.719 115.686 199.945 114.396 204.17C112.535 210.544 110.708 216.81 108.918 222.969C108.56 224.043 108.13 225.404 107.629 227.051C105.695 233.639 103.368 241.839 100.646 251.65C98.9277 257.594 97.4238 263.073 96.1348 268.086C94.9173 273.099 94.0579 276.715 93.5566 278.936C91.5514 287.458 90.0475 295.192 89.0449 302.139C88.472 305.934 88.1855 309.73 88.1855 313.525C88.3288 315.96 88.651 317.93 89.1523 319.434C89.7253 321.009 90.3698 322.191 91.0859 322.979C91.8737 323.766 92.6615 324.303 93.4492 324.59C94.3086 324.876 95.0964 324.984 95.8125 324.912C96.5286 324.912 97.1016 324.84 97.5312 324.697C98.0326 324.554 98.2832 324.482 98.2832 324.482C101.291 323.695 106.232 320.257 113.107 314.17C119.982 308.083 129.328 297.376 141.145 282.051C153.033 266.654 167.964 244.668 185.939 216.094C189.305 210.866 192.707 205.495 196.145 199.98C200.871 185.085 205.884 170.833 211.184 157.227C211.9 155.365 212.974 152.607 214.406 148.955C215.91 145.303 217.521 141.4 219.24 137.246C220.887 133.092 222.463 129.297 223.967 125.859C225.471 122.35 226.581 119.844 227.297 118.34C229.947 112.539 232.561 107.419 235.139 102.979C237.072 99.3978 239.113 95.8887 241.262 92.4512C243.195 89.6582 244.878 87.653 246.311 86.4355C247.743 85.2181 248.889 84.502 249.748 84.2871C249.748 84.2871 249.82 84.2871 249.963 84.2871C250.106 84.2155 250.285 84.1797 250.5 84.1797C250.786 84.1081 251.037 84.1081 251.252 84.1797C251.538 84.2513 251.789 84.3945 252.004 84.6094C252.29 84.7526 252.505 85.0033 252.648 85.3613C253.651 87.653 253.723 91.0905 252.863 95.6738C252.004 100.257 250.715 104.876 248.996 109.531C246.633 116.406 243.482 123.424 239.543 130.586C233.384 141.901 227.297 152.786 221.281 163.242C220.207 166.68 219.133 170.153 218.059 173.662C214.621 184.476 211.184 195.505 207.746 206.748C205.311 214.482 202.984 222.217 200.764 229.951C198.615 237.614 196.61 245.133 194.748 252.51C194.676 252.939 194.569 253.441 194.426 254.014C193.137 258.812 191.74 265.186 190.236 273.135C189.377 277.646 188.661 282.301 188.088 287.1C187.587 291.898 187.73 296.589 188.518 301.172C189.305 304.681 190.523 307.188 192.17 308.691C193.817 310.195 195.607 310.983 197.541 311.055C199.475 311.198 201.337 310.947 203.127 310.303C204.917 309.658 206.385 308.978 207.531 308.262C208.677 307.617 209.25 307.295 209.25 307.295C217.557 302.139 229.159 291.074 244.055 274.102C267.401 247.533 295.223 208.968 327.521 158.408C352.658 120.381 376.434 91.0905 398.85 70.5371C421.265 49.9837 440.601 39.707 456.857 39.707C457.359 39.707 457.824 39.707 458.254 39.707C468.495 40.2083 476.122 44.9349 481.135 53.8867ZM239.543 105.02C239.042 106.38 238.075 109.281 236.643 113.721C235.282 118.161 233.742 123.138 232.023 128.652C230.305 134.095 228.765 138.965 227.404 143.262C226.115 147.487 225.327 150.101 225.041 151.104C229.051 144.014 233.062 136.745 237.072 129.297C240.939 122.207 244.055 115.332 246.418 108.672C249.426 99.5052 250.858 93.1673 250.715 89.6582C250.715 89.5866 250.715 89.515 250.715 89.4434C250.715 88.9421 250.679 88.4408 250.607 87.9395C250.607 87.4382 250.5 87.0801 250.285 86.8652C250.07 86.6504 249.712 86.722 249.211 87.0801C248.781 87.3665 248.101 88.0827 247.17 89.2285C246.096 90.804 245.093 92.4512 244.162 94.1699C242.372 97.679 240.832 101.296 239.543 105.02Z" fill="#707070" fill-opacity="0.2"/>
</svg>
