<svg 
 xmlns="http://www.w3.org/2000/svg"
 xmlns:xlink="http://www.w3.org/1999/xlink"
 width="172px" height="109px">
<path fill-rule="evenodd"  fill="rgb(251, 63, 111)"
 d="M161.545,108.383 L161.545,98.263 L171.211,98.263 L171.211,108.383 L161.545,108.383 ZM161.545,65.758 L171.211,65.758 L171.211,75.878 L161.545,75.878 L161.545,65.758 ZM161.545,33.253 L171.211,33.253 L171.211,43.373 L161.545,43.373 L161.545,33.253 ZM161.545,0.748 L171.211,0.748 L171.211,10.868 L161.545,10.868 L161.545,0.748 ZM121.333,98.263 L130.999,98.263 L130.999,108.383 L121.333,108.383 L121.333,98.263 ZM121.333,65.758 L130.999,65.758 L130.999,75.878 L121.333,75.878 L121.333,65.758 ZM121.333,33.253 L130.999,33.253 L130.999,43.373 L121.333,43.373 L121.333,33.253 ZM121.333,0.748 L130.999,0.748 L130.999,10.868 L121.333,10.868 L121.333,0.748 ZM81.122,98.263 L90.788,98.263 L90.788,108.383 L81.122,108.383 L81.122,98.263 ZM81.122,65.758 L90.788,65.758 L90.788,75.878 L81.122,75.878 L81.122,65.758 ZM81.122,33.253 L90.788,33.253 L90.788,43.373 L81.122,43.373 L81.122,33.253 ZM81.122,0.748 L90.788,0.748 L90.788,10.868 L81.122,10.868 L81.122,0.748 ZM40.911,98.263 L50.577,98.263 L50.577,108.383 L40.911,108.383 L40.911,98.263 ZM40.911,65.758 L50.577,65.758 L50.577,75.878 L40.911,75.878 L40.911,65.758 ZM40.911,33.253 L50.577,33.253 L50.577,43.373 L40.911,43.373 L40.911,33.253 ZM40.911,0.748 L50.577,0.748 L50.577,10.868 L40.911,10.868 L40.911,0.748 ZM0.699,98.263 L10.366,98.263 L10.366,108.383 L0.699,108.383 L0.699,98.263 ZM0.699,65.758 L10.366,65.758 L10.366,75.878 L0.699,75.878 L0.699,65.758 ZM0.699,33.253 L10.366,33.253 L10.366,43.373 L0.699,43.373 L0.699,33.253 ZM0.699,0.748 L10.366,0.748 L10.366,10.868 L0.699,10.868 L0.699,0.748 Z"/>
</svg>