<svg 
 xmlns="http://www.w3.org/2000/svg"
 xmlns:xlink="http://www.w3.org/1999/xlink"
 width="175px" height="110px">
<path fill-rule="evenodd"  fill="rgb(0, 166, 72)"
 d="M165.008,109.952 L165.008,99.672 L174.867,99.672 L174.867,109.952 L165.008,109.952 ZM165.008,66.653 L174.867,66.653 L174.867,76.934 L165.008,76.934 L165.008,66.653 ZM165.008,33.635 L174.867,33.635 L174.867,43.915 L165.008,43.915 L165.008,33.635 ZM165.008,0.617 L174.867,0.617 L174.867,10.897 L165.008,10.897 L165.008,0.617 ZM123.995,99.672 L133.854,99.672 L133.854,109.952 L123.995,109.952 L123.995,99.672 ZM123.995,66.653 L133.854,66.653 L133.854,76.934 L123.995,76.934 L123.995,66.653 ZM123.995,33.635 L133.854,33.635 L133.854,43.915 L123.995,43.915 L123.995,33.635 ZM123.995,0.617 L133.854,0.617 L133.854,10.897 L123.995,10.897 L123.995,0.617 ZM82.982,99.672 L92.841,99.672 L92.841,109.952 L82.982,109.952 L82.982,99.672 ZM82.982,66.653 L92.841,66.653 L92.841,76.934 L82.982,76.934 L82.982,66.653 ZM82.982,33.635 L92.841,33.635 L92.841,43.915 L82.982,43.915 L82.982,33.635 ZM82.982,0.617 L92.841,0.617 L92.841,10.897 L82.982,10.897 L82.982,0.617 ZM41.970,99.672 L51.828,99.672 L51.828,109.952 L41.970,109.952 L41.970,99.672 ZM41.970,66.653 L51.828,66.653 L51.828,76.934 L41.970,76.934 L41.970,66.653 ZM41.970,33.635 L51.828,33.635 L51.828,43.915 L41.970,43.915 L41.970,33.635 ZM41.970,0.617 L51.828,0.617 L51.828,10.897 L41.970,10.897 L41.970,0.617 ZM0.957,99.672 L10.815,99.672 L10.815,109.952 L0.957,109.952 L0.957,99.672 ZM0.957,66.653 L10.815,66.653 L10.815,76.934 L0.957,76.934 L0.957,66.653 ZM0.957,33.635 L10.815,33.635 L10.815,43.915 L0.957,43.915 L0.957,33.635 ZM0.957,0.617 L10.815,0.617 L10.815,10.897 L0.957,10.897 L0.957,0.617 Z"/>
</svg>