<svg width="60" height="60" viewBox="0 0 60 60" fill="none" xmlns="http://www.w3.org/2000/svg">
<g clip-path="url(#clip0)">
<path d="M33.4297 44.5056H31.6363C30.9776 44.5056 30.4418 45.0416 30.4418 45.7003V51.1037C30.4418 51.7625 30.9776 52.2984 31.6363 52.2984H33.4297C35.079 52.2984 36.4208 50.9575 36.4208 49.3092V47.4947C36.4208 45.8466 35.079 44.5056 33.4297 44.5056ZM34.6497 49.3093C34.6497 49.9809 34.1023 50.5273 33.4297 50.5273H32.2129V46.277H33.4297C34.1023 46.277 34.6497 46.8234 34.6497 47.495V49.3093Z" fill="black"/>
<path d="M27.4285 44.5056H24.4661C23.9769 44.5056 23.5804 44.9021 23.5804 45.3912C23.5804 45.8804 23.9769 46.2768 24.4661 46.2768H27.2203V47.5164H24.4661C23.9769 47.5164 23.5804 47.9129 23.5804 48.402C23.5804 48.8912 23.9769 49.2876 24.4661 49.2876H27.2203V50.5272H24.4661C23.9769 50.5272 23.5804 50.9237 23.5804 51.4128C23.5804 51.9019 23.9769 52.2984 24.4661 52.2984H27.4285C28.2903 52.2984 28.9916 51.597 28.9916 50.7348V46.0691C28.9915 45.2071 28.2903 44.5056 27.4285 44.5056Z" fill="black"/>
<path d="M59.9469 50.3726L58.4557 45.1386C58.3217 44.6682 57.8318 44.3955 57.3613 44.5296C56.8909 44.6637 56.6183 45.1536 56.7523 45.624L57.804 49.3155L47.2251 43.4223C47.2289 43.2939 47.2277 36.7012 47.2277 36.7012C47.2277 36.2121 46.8313 35.8156 46.3421 35.8156C45.853 35.8156 45.4565 36.2121 45.4565 36.7012C45.4565 36.7012 45.4598 43.4737 45.4467 43.5851C45.4116 43.611 41.1037 46.0165 41.1037 46.0165C40.0654 41.1726 35.9327 37.4643 30.8847 37.0728V34.6627L45.4565 26.5482V32.6403C45.4565 33.1295 45.853 33.5259 46.3421 33.5259C46.8313 33.5259 47.2277 33.1295 47.2277 32.6403V24.8608C47.2146 24.418 46.9823 24.0548 46.5306 23.7713L30.8848 15.0587V3.03638L33.5971 5.75051C33.7701 5.92356 33.9967 6.01014 34.2235 6.01014C34.4501 6.01014 34.6766 5.92368 34.8497 5.75098C35.1955 5.40524 35.1957 4.84451 34.85 4.49854L31.0081 0.654043C30.7465 0.387269 30.3794 0.234375 29.9992 0.234375C29.6189 0.234375 29.2619 0.382114 28.9942 0.650177L25.1484 4.49842C24.8027 4.8444 24.8028 5.40513 25.1488 5.75087C25.4949 6.09672 26.0555 6.09649 26.4012 5.75051L29.1136 3.03638V15.0585L23.026 18.4475C22.5987 18.6854 22.4451 19.2248 22.6829 19.6521C22.9209 20.0795 23.4603 20.2329 23.8874 19.9951L29.9992 16.5928L44.8465 24.8606L29.9993 33.1285L15.1523 24.8591L20.7881 21.6985C21.2147 21.4592 21.3666 20.9195 21.1273 20.4929C20.888 20.0662 20.3484 19.9144 19.9217 20.1536L13.4709 23.7713C13.0267 24.0187 12.7726 24.4171 12.7735 24.8639C12.7735 24.8658 12.7738 24.8676 12.7738 24.8693C12.7738 24.8693 12.7724 43.2967 12.7761 43.4225L2.19708 49.3141L3.24625 45.6234C3.38005 45.1529 3.10707 44.6632 2.63655 44.5294C2.16627 44.3956 1.67631 44.6686 1.54251 45.1391L0.0534017 50.3776C-0.047942 50.7414 -0.00342104 51.1225 0.178763 51.4506C0.362236 51.781 0.675054 52.0286 1.03228 52.1283L6.26301 53.6203C6.34421 53.6435 6.42598 53.6545 6.50647 53.6545C6.89205 53.6545 7.24669 53.4008 7.35764 53.0117C7.49179 52.5413 7.21928 52.0512 6.74899 51.9171L3.05563 50.8635L13.5349 45.0274C13.6474 45.1098 18.6535 47.9092 18.6535 47.9092C18.6465 48.0727 18.6424 48.2369 18.6424 48.4021C18.6424 54.668 23.7371 59.7657 29.9995 59.7657C36.2618 59.7657 41.3564 54.6681 41.3564 48.4021C41.3564 48.237 41.3523 48.0728 41.3453 47.9094C41.3453 47.9094 46.355 45.1092 46.4667 45.0272L56.9446 50.8641L53.2532 51.9172C52.7828 52.0513 52.5103 52.5414 52.6445 53.0118C52.7555 53.401 53.1101 53.6547 53.4957 53.6547C53.5762 53.6547 53.658 53.6436 53.7391 53.6204L58.9703 52.1283C59.3278 52.026 59.6374 51.7793 59.8201 51.4505C60.0033 51.1198 60.049 50.7388 59.9469 50.3726ZM14.7856 43.7276C14.6575 43.656 14.5896 43.6113 14.5541 43.5853C14.5414 43.4746 14.5451 26.5485 14.5451 26.5485L29.1136 34.6627V37.0728C24.0658 37.4643 19.9332 41.1724 18.8946 46.0162L14.7856 43.7276ZM29.9992 57.9944C24.7136 57.9944 20.4135 53.6912 20.4135 48.402C20.4135 43.1128 24.7136 38.8096 29.9992 38.8096C35.2849 38.8096 39.585 43.1128 39.585 48.402C39.585 53.6912 35.2849 57.9944 29.9992 57.9944Z" fill="black"/>
</g>
<defs>
<clipPath id="clip0">
<rect width="60" height="60" fill="white"/>
</clipPath>
</defs>
</svg>
