<svg width="60" height="60" viewBox="0 0 60 60" fill="none" xmlns="http://www.w3.org/2000/svg">
<path d="M55.7998 27.1129L54.246 20.8979C54.6708 20.8076 54.9895 20.4308 54.9895 19.9792V18.9772C54.9895 16.8015 53.2194 15.0315 51.0438 15.0315H43.9666V12.9645C43.9666 11.8939 43.0957 11.0229 42.0251 11.0229H5.94984C4.87922 11.0229 4.00828 11.8939 4.00828 12.9645V30.0001C4.00828 30.5188 4.42887 30.9396 4.94777 30.9396C5.46656 30.9396 5.88727 30.519 5.88727 30.0001V12.9645C5.88727 12.9299 5.91527 12.9019 5.94984 12.9019H42.025C42.0595 12.9019 42.0875 12.9299 42.0875 12.9645V30.0003C42.0875 30.5191 42.5081 30.9398 43.027 30.9398C43.5458 30.9398 43.9665 30.5192 43.9665 30.0003V28.9353H55.0488C55.0498 28.9353 55.0505 28.9355 55.0513 28.9355C55.0522 28.9355 55.053 28.9354 55.0539 28.9354C56.4176 28.9363 57.5755 29.8314 57.9732 31.0648H55.052C54.5332 31.0648 54.1125 31.4854 54.1125 32.0043V34.0085C54.1125 35.6316 55.433 36.9521 57.0561 36.9521H58.1209V41.0856H55.6644C54.8575 38.7556 52.6425 37.0772 50.0415 37.0772C47.4405 37.0772 45.2255 38.7556 44.4186 41.0856H43.9663V34.0083C43.9663 33.4896 43.5457 33.0688 43.0268 33.0688C42.508 33.0688 42.0873 33.4894 42.0873 34.0083V41.0854H22.5957C21.7888 38.7554 19.5738 37.077 16.9729 37.077C14.3719 37.077 12.1568 38.7554 11.35 41.0854H5.94984C5.91527 41.0854 5.88727 41.0574 5.88727 41.0228V38.956H9.95824C10.477 38.956 10.8977 38.5354 10.8977 38.0165C10.8977 37.4976 10.4771 37.077 9.95824 37.077H0.939492C0.420703 37.077 0 37.4976 0 38.0165C0 38.5354 0.420586 38.956 0.939492 38.956H4.0084V41.0228C4.0084 42.0935 4.87934 42.9644 5.94996 42.9644H11.0246C11.0244 42.9853 11.023 43.006 11.023 43.027C11.023 46.3078 13.6922 48.9768 16.9729 48.9768C20.2535 48.9768 22.9227 46.3078 22.9227 43.027C22.9227 43.0059 22.9213 42.9853 22.9211 42.9644H44.0933C44.0931 42.9853 44.0917 43.006 44.0917 43.027C44.0917 46.3078 46.7609 48.9768 50.0415 48.9768C53.3222 48.9768 55.9914 46.3078 55.9914 43.027C55.9914 43.0059 55.99 42.9853 55.9897 42.9644H59.0604C59.5792 42.9644 59.9999 42.5438 59.9999 42.0249V32.0041C60 29.53 58.1746 27.4744 55.7998 27.1129ZM43.9666 16.9103H51.0438C52.1835 16.9103 53.1107 17.8375 53.1107 18.9772V19.0397H43.9666V16.9103ZM43.9666 27.0564V20.9186H52.3145L53.8489 27.0564H43.9666ZM16.9729 47.0982C14.7281 47.0982 12.9019 45.2721 12.9019 43.0272C12.9019 40.7824 14.7281 38.9562 16.9729 38.9562C19.2176 38.9562 21.0438 40.7824 21.0438 43.0272C21.0438 45.2721 19.2176 47.0982 16.9729 47.0982ZM50.0418 47.0982C47.797 47.0982 45.9708 45.2721 45.9708 43.0272C45.9708 40.7824 47.797 38.9562 50.0418 38.9562C52.2865 38.9562 54.1127 40.7824 54.1127 43.0272C54.1127 45.2721 52.2865 47.0982 50.0418 47.0982ZM58.1211 35.0731H57.0564C56.4693 35.0731 55.9916 34.5955 55.9916 34.0083V32.9436H58.121V35.0731H58.1211Z" fill="black"/>
<path d="M16.9729 41.0857C15.9022 41.0857 15.0313 41.9566 15.0313 43.0273C15.0313 44.0979 15.9022 44.9688 16.9729 44.9688C18.0435 44.9688 18.9144 44.0979 18.9144 43.0273C18.9144 41.9566 18.0435 41.0857 16.9729 41.0857Z" fill="black"/>
<path d="M50.0418 41.0857C48.9712 41.0857 48.1002 41.9566 48.1002 43.0273C48.1002 44.0979 48.9712 44.9688 50.0418 44.9688C51.1124 44.9688 51.9833 44.0979 51.9833 43.0273C51.9833 41.9566 51.1124 41.0857 50.0418 41.0857Z" fill="black"/>
<path d="M39.0187 37.0771H24.9895C24.4708 37.0771 24.05 37.4977 24.05 38.0166C24.05 38.5355 24.4706 38.9561 24.9895 38.9561H39.0187C39.5375 38.9561 39.9582 38.5355 39.9582 38.0166C39.9582 37.4977 39.5377 37.0771 39.0187 37.0771Z" fill="black"/>
<path d="M14.9687 33.0688H2.94364C2.42485 33.0688 2.00415 33.4894 2.00415 34.0083C2.00415 34.5272 2.42474 34.9478 2.94364 34.9478H14.9687C15.4875 34.9478 15.9082 34.5272 15.9082 34.0083C15.9082 33.4894 15.4875 33.0688 14.9687 33.0688Z" fill="black"/>
<path d="M32.6685 20.3168C32.3017 19.95 31.7067 19.95 31.3399 20.3169L22.9854 28.6714L18.6393 24.3252C18.2723 23.9583 17.6775 23.9583 17.3107 24.3252C16.9438 24.6921 16.9438 25.2869 17.3107 25.6538L22.3212 30.6643C22.5046 30.8478 22.745 30.9394 22.9854 30.9394C23.2258 30.9394 23.4663 30.8478 23.6496 30.6643L32.6684 21.6455C33.0353 21.2785 33.0353 20.6837 32.6685 20.3168Z" fill="black"/>
</svg>
