<svg width="60" height="60" viewBox="0 0 60 60" fill="none" xmlns="http://www.w3.org/2000/svg">
<g clip-path="url(#clip0)">
<path d="M59.9942 30.2907C60.0377 29.8183 59.7918 29.366 59.3716 29.1458L48.3954 23.3917L59.1734 20.0606C59.627 19.9205 59.9511 19.5209 59.9946 19.048C60.0377 18.5756 59.7918 18.1233 59.3716 17.9032L37.5464 6.46229C37.2722 6.31855 36.9527 6.2888 36.6565 6.38035L0.825129 17.4541C0.371944 17.5946 0.0473901 17.9942 0.00436042 18.4667C-0.039127 18.9395 0.206692 19.3913 0.626918 19.612L8.16306 23.5625C9.35279 24.1859 10.5659 24.7467 11.8 25.2452L0.819636 28.6986C0.367824 28.8405 0.0460169 29.2406 0.00390265 29.7121C-0.0382115 30.184 0.207607 30.6345 0.626918 30.8542L11.6032 36.6083L0.825129 39.9394C0.371944 40.0795 0.0473901 40.4791 0.00436042 40.952C-0.039127 41.4244 0.206692 41.8767 0.626918 42.0968L22.4521 53.5377C22.6215 53.6265 22.8087 53.6718 22.9964 53.6718C23.1127 53.6718 23.2294 53.6544 23.3425 53.6196L36.7059 49.4897C37.3239 49.2984 37.6705 48.6424 37.4791 48.0239C37.2882 47.4055 36.6322 47.059 36.0138 47.2503L23.1122 51.2374L4.23088 41.3397L14.5475 38.1514L22.4521 42.295C22.6215 42.3843 22.8087 42.4292 22.9964 42.4292C23.1127 42.4292 23.2294 42.4118 23.3425 42.377L45.2194 35.6158L55.7676 41.1451L44.9823 44.4786C44.3639 44.6695 44.0173 45.3259 44.2087 45.9443C44.3639 46.4474 44.8271 46.7701 45.3279 46.7701C45.4423 46.7701 45.5591 46.7532 45.6744 46.7179L59.1734 42.5459C59.6266 42.4058 59.9511 42.0057 59.9942 41.5333C60.0377 41.0609 59.7918 40.6086 59.3716 40.3885L48.3954 34.6344L59.1734 31.3032C59.6266 31.1632 59.9511 30.7635 59.9942 30.2907ZM4.23088 18.8548L36.8863 8.76255L55.7676 18.6603L38.0641 24.1315C37.2063 24.3965 36.3434 24.6295 35.4769 24.8328L33.0182 24.1132C29.997 23.2288 27.5003 21.2215 25.9879 18.4607C25.7988 18.1146 25.4482 17.8876 25.0554 17.8555C24.6599 17.823 24.28 17.991 24.0369 18.3019C21.8776 21.0645 18.628 22.6488 15.1211 22.6488H11.6723C10.8561 22.2908 10.0481 21.904 9.25117 21.4865L4.23088 18.8548ZM17.7871 24.7339C20.4448 24.2116 22.8769 22.9134 24.7995 20.9757C26.2461 23.0232 28.1943 24.6286 30.4717 25.6604C26.2113 26.0756 21.9321 25.7625 17.7871 24.7339ZM23.1122 39.9948L4.21349 30.0879L15.5079 26.5361C16.0682 26.7004 16.6321 26.852 17.1993 26.992C17.0661 27.1861 16.9915 27.4191 16.9915 27.6562C16.9915 27.9643 17.1169 28.2669 17.3348 28.4848C17.5527 28.7027 17.8553 28.8281 18.1634 28.8281C18.4728 28.8281 18.774 28.7027 18.9919 28.4848C19.2098 28.2669 19.3352 27.9643 19.3352 27.6562C19.3352 27.5885 19.3279 27.5212 19.3165 27.4548C20.59 27.697 21.8786 27.8783 23.1813 27.9977C24.4214 28.1117 25.6592 28.1685 26.8933 28.1685C29.314 28.1685 31.7205 27.9483 34.0981 27.5125C34.0921 27.5601 34.088 27.6082 34.088 27.6562C34.088 27.9643 34.2134 28.2669 34.4313 28.4848C34.6506 28.7027 34.9518 28.8281 35.2599 28.8281C35.5679 28.8281 35.8705 28.7027 36.0884 28.4848C36.3072 28.2669 36.4327 27.9643 36.4327 27.6562C36.4327 27.4438 36.3722 27.2351 36.2633 27.0538C37.0987 26.8529 37.93 26.6258 38.7563 26.3708L41.2048 25.6142C41.2598 25.7213 41.3307 25.8206 41.4168 25.9067C41.6347 26.1246 41.9373 26.25 42.2453 26.25C42.5534 26.25 42.856 26.1246 43.0739 25.9067C43.2918 25.6888 43.4172 25.3862 43.4172 25.0781C43.4172 25.0296 43.4131 24.9815 43.4067 24.9335L45.2194 24.3732L55.7676 29.9025L23.1122 39.9948Z" fill="black"/>
<path d="M40.8384 45.8142C40.5289 45.8142 40.2268 45.9396 40.0089 46.1575C39.791 46.3754 39.6656 46.678 39.6656 46.9861C39.6656 47.2942 39.791 47.5967 40.0089 47.8146C40.2268 48.0325 40.5289 48.158 40.8384 48.158C41.1469 48.158 41.4477 48.0325 41.6669 47.8146C41.8848 47.5967 42.0103 47.2942 42.0103 46.9861C42.0103 46.678 41.8853 46.3754 41.6669 46.1575C41.4481 45.9396 41.1469 45.8142 40.8384 45.8142Z" fill="black"/>
<path d="M23.6517 34.8047C23.3436 34.8047 23.0415 34.9301 22.8236 35.148C22.6052 35.3659 22.4798 35.6685 22.4798 35.9766C22.4798 36.2846 22.6052 36.5872 22.8236 36.8051C23.0415 37.023 23.3436 37.1484 23.6517 37.1484C23.9602 37.1484 24.2623 37.023 24.4802 36.8051C24.6995 36.5872 24.8235 36.2846 24.8235 35.9766C24.8235 35.6685 24.6995 35.3659 24.4802 35.148C24.2623 34.9301 23.9611 34.8047 23.6517 34.8047Z" fill="black"/>
<path d="M16.8163 31.3477C16.5083 31.3477 16.2057 31.4731 15.9878 31.691C15.7699 31.9089 15.6445 32.2115 15.6445 32.5195C15.6445 32.8276 15.7699 33.1302 15.9878 33.3481C16.2057 33.566 16.5083 33.6914 16.8163 33.6914C17.1244 33.6914 17.427 33.566 17.6449 33.3481C17.8628 33.1302 17.9882 32.8276 17.9882 32.5195C17.9882 32.2115 17.8628 31.9089 17.6449 31.691C17.427 31.4731 17.1244 31.3477 16.8163 31.3477Z" fill="black"/>
<path d="M32.4608 31.3477C32.1528 31.3477 31.8502 31.4731 31.6323 31.691C31.4144 31.9089 31.289 32.2115 31.289 32.5195C31.289 32.8276 31.4144 33.1302 31.6323 33.3481C31.8502 33.566 32.1528 33.6914 32.4608 33.6914C32.7689 33.6914 33.0715 33.566 33.2894 33.3481C33.5073 33.1302 33.6327 32.8276 33.6327 32.5195C33.6327 32.2115 33.5073 31.9089 33.2894 31.691C33.0715 31.4731 32.7689 31.3477 32.4608 31.3477Z" fill="black"/>
<path d="M41.2499 27.7734C40.9418 27.7734 40.6393 27.8989 40.4214 28.1168C40.2035 28.3347 40.078 28.6372 40.078 28.9453C40.078 29.2534 40.2035 29.556 40.4214 29.7739C40.6393 29.9918 40.9418 30.1172 41.2499 30.1172C41.558 30.1172 41.8606 29.9918 42.0785 29.7739C42.2964 29.556 42.4218 29.2534 42.4218 28.9453C42.4218 28.6372 42.2964 28.3347 42.0785 28.1168C41.8606 27.8989 41.558 27.7734 41.2499 27.7734Z" fill="black"/>
<path d="M26.3085 30.2883C26.0005 30.2883 25.6979 30.4138 25.48 30.6317C25.2621 30.8495 25.1367 31.1517 25.1367 31.4602C25.1367 31.7683 25.2621 32.0704 25.48 32.2888C25.6979 32.5067 26.0005 32.6321 26.3085 32.6321C26.6166 32.6321 26.9192 32.5067 27.1371 32.2888C27.355 32.0704 27.4804 31.7683 27.4804 31.4602C27.4804 31.1517 27.355 30.8495 27.1371 30.6317C26.9192 30.4138 26.6166 30.2883 26.3085 30.2883Z" fill="black"/>
</g>
<defs>
<clipPath id="clip0">
<rect width="60" height="60" fill="white"/>
</clipPath>
</defs>
</svg>
