<svg width="60" height="60" viewBox="0 0 60 60" fill="none" xmlns="http://www.w3.org/2000/svg">
<path d="M0.879877 26.2357H2.59658C3.11746 26.2357 3.60597 25.9574 3.87146 25.5096L5.6128 22.5725C5.86057 22.1545 5.7226 21.6147 5.3046 21.3669C4.88649 21.1189 4.34683 21.257 4.09905 21.675L2.43855 24.476H0.879877C0.39395 24.476 0 24.8699 0 25.3559C0 25.842 0.39395 26.2357 0.879877 26.2357Z" fill="black"/>
<path d="M59.0376 43.465H56.3256C56.1389 43.465 55.9569 43.5245 55.8061 43.6347C52.5456 46.0199 48.0856 46.1333 44.708 43.9174L44.2382 43.6092C44.0947 43.5151 43.9271 43.465 43.7556 43.465H37.2556C36.9898 43.465 36.7383 43.5852 36.5712 43.792L33.6046 47.4639C33.3186 47.8181 32.8933 48.0212 32.4382 48.0212C31.6113 48.0212 30.9386 47.3485 30.9386 46.5216V45.7337C30.9386 45.2558 31.0753 44.7904 31.3336 44.388L33.2327 41.431C33.9659 40.2896 35.0861 39.4812 36.387 39.1548C40.9476 38.0107 43.9459 35.9645 45.2985 33.0726C47.02 29.3924 45.5387 25.5431 44.8219 24.0591C44.5676 23.5327 44.0686 23.1761 43.4868 23.1052L41.981 22.922C41.0887 22.8135 40.2571 22.4458 39.5762 21.8588L38.0195 20.5169C37.6653 20.2119 37.1347 20.2368 36.8106 20.5735C36.1505 21.2602 35.3059 21.7124 34.3689 21.8811C33.855 21.9733 33.482 22.4191 33.482 22.9413V26.3697C33.482 27.0711 32.9115 27.6416 32.2101 27.6416C31.5087 27.6416 30.9382 27.0711 30.9382 26.3697V21.4085C30.9382 20.4915 31.3494 19.6371 32.0661 19.065L34.7029 16.9604C36.6086 15.4394 39.2795 15.2832 41.3493 16.5721L45.9078 19.4104C46.3201 19.6669 46.8628 19.5409 47.1198 19.1285C47.3764 18.716 47.2503 18.1733 46.8378 17.9165L42.2794 15.0783C39.8608 13.5721 36.8133 13.5791 34.4168 15.022C36.2914 12.4332 39.6501 11.3227 42.7488 12.3734L44.3613 12.92C44.821 13.0762 45.3212 12.8296 45.4771 12.3694C45.6331 11.9091 45.3866 11.4096 44.9264 11.2536L43.3139 10.7069C39.0973 9.27701 34.4909 11.0771 32.3614 14.9876L30.8229 17.8126C30.5327 18.0636 30.2763 18.344 30.0585 18.6491C29.8406 18.344 29.5842 18.0635 29.2939 17.8126L27.7554 14.9876C25.6258 11.0771 21.0192 9.27642 16.8029 10.7069L12.2408 12.2538C10.1775 12.9534 8.42921 14.3709 7.31787 16.245L6.01143 18.4493C5.76354 18.8673 5.9015 19.4071 6.3195 19.6549C6.46028 19.7384 6.61479 19.778 6.7673 19.778C7.06787 19.778 7.36069 19.624 7.52505 19.3468L8.83173 17.1428C9.72885 15.6296 11.1403 14.4853 12.806 13.9204L17.3682 12.3735C20.467 11.3227 23.8257 12.4333 25.7003 15.0221C23.3037 13.5793 20.2563 13.5724 17.8376 15.0783L13.2791 17.9167C12.8666 18.1735 12.7404 18.7162 12.9973 19.1287C13.2541 19.5413 13.7966 19.6674 14.2093 19.4106L18.7678 16.5722C20.8375 15.2838 23.5084 15.4395 25.4141 16.9607L28.049 19.0639C28.0502 19.065 28.0515 19.0662 28.0529 19.0671C28.7685 19.6391 29.1788 20.4924 29.1788 21.4088V26.37C29.1788 27.0713 28.6083 27.6418 27.907 27.6418C27.2057 27.6418 26.6352 27.0713 26.6352 26.37V22.9416C26.6352 22.42 26.2626 21.9741 25.749 21.8814C24.8114 21.7126 23.9669 21.2603 23.3066 20.5737C22.9827 20.2368 22.4519 20.2121 22.0979 20.5171L20.5414 21.859C19.8603 22.4461 19.0287 22.8139 18.1364 22.9223L16.6308 23.1054C16.0492 23.176 15.5501 23.5325 15.2957 24.0593C14.5668 25.5687 13.0666 29.4803 14.8764 33.1918C15.0288 33.5045 15.342 33.6863 15.6679 33.6863C15.7973 33.6863 15.9288 33.6576 16.0529 33.597C16.4897 33.3841 16.6712 32.8574 16.4582 32.4206C14.9572 29.3421 16.3756 25.8781 16.8685 24.8493L18.3489 24.6693C19.5888 24.5185 20.7443 24.0077 21.6905 23.192L22.6578 22.3582C23.3138 22.8805 24.0643 23.2625 24.8756 23.486V26.3702C24.8756 28.0419 26.2356 29.4018 27.9072 29.4018C28.7478 29.4018 29.5093 29.0577 30.0589 28.5034C30.6086 29.0578 31.3702 29.4018 32.2107 29.4018C33.8823 29.4018 35.2422 28.0419 35.2422 26.3702V23.486C36.0536 23.2624 36.8041 22.8804 37.46 22.3582L38.4273 23.1921C39.3733 24.0077 40.5289 24.5185 41.7688 24.6693L43.2492 24.8493C45.1073 28.7178 44.0681 31.5502 43.7047 32.3273C42.5872 34.7162 39.9811 36.4393 35.9589 37.4482C34.2222 37.8839 32.7283 38.9608 31.7523 40.4804L30.0589 43.117L28.3655 40.4801C27.3894 38.9607 25.8955 37.8839 24.1588 37.4482C21.8472 36.8683 19.9826 36.0409 18.617 34.9888C18.2319 34.6921 17.6795 34.7638 17.383 35.1488C17.0864 35.5337 17.1581 36.0862 17.543 36.3829C19.1013 37.5832 21.1831 38.5161 23.7306 39.1551C25.0314 39.4814 26.1517 40.2899 26.8849 41.4311L28.7842 44.3882C29.0426 44.7906 29.1792 45.2559 29.1792 45.734V46.5219C29.1792 47.3487 28.5065 48.0214 27.6795 48.0214C27.2243 48.0214 26.7992 47.8183 26.513 47.4643L23.5464 43.7922C23.3794 43.5854 23.1279 43.4653 22.862 43.4653H16.3621C16.1906 43.4653 16.0228 43.5154 15.8794 43.6095L15.4097 43.9177C12.0319 46.1334 7.57198 46.0199 4.31162 43.6349C4.16087 43.5248 3.97891 43.4653 3.79214 43.4653H0.962458C0.476531 43.4653 0.0825806 43.8591 0.0825806 44.3452C0.0825806 44.8312 0.476531 45.225 0.962458 45.225H3.5107C7.33676 47.8753 12.4688 47.9516 16.3746 45.3889L16.6245 45.225H22.4413L25.1438 48.5702C25.7656 49.3398 26.6897 49.7812 27.6791 49.7812C28.6171 49.7812 29.4633 49.3823 30.0586 48.7458C30.6539 49.3823 31.5001 49.7812 32.4381 49.7812C33.4275 49.7812 34.3516 49.3397 34.9733 48.5701L37.6759 45.225H43.4927L43.7426 45.3889C47.6487 47.9515 52.7805 47.8751 56.6065 45.225H59.0375C59.5236 45.225 59.9174 44.8312 59.9174 44.3452C59.9174 43.8591 59.5237 43.465 59.0376 43.465Z" fill="black"/>
<path d="M47.8464 14.127C49.2946 14.7475 50.4837 15.7902 51.2855 17.1427L56.2459 25.5096C56.5115 25.9574 57 26.2357 57.5206 26.2357H59.12C59.6061 26.2357 59.9999 25.8418 59.9999 25.3558C59.9999 24.8697 59.6061 24.4759 59.12 24.4759H57.6789L52.7991 16.2452C51.8058 14.5697 50.3329 13.2778 48.5394 12.5095C48.0922 12.3178 47.5753 12.5251 47.3841 12.9716C47.1929 13.4184 47.3999 13.9357 47.8464 14.127Z" fill="black"/>
</svg>
