<svg width="50" height="50" viewBox="0 0 50 50" fill="none" xmlns="http://www.w3.org/2000/svg">
<g clip-path="url(#clip0)">
<path d="M49.3012 7.0903L42.9089 0.69801C41.9779 -0.233044 40.4629 -0.232947 39.5318 0.69801L27.4964 12.7334C27.195 13.0348 27.195 13.5233 27.4964 13.8248C27.7977 14.126 28.2863 14.126 28.5877 13.8248L40.623 1.78942C40.7826 1.62985 40.9947 1.54205 41.2203 1.54205C41.4459 1.54205 41.658 1.62985 41.8175 1.78942L48.2099 8.1817C48.3694 8.34117 48.4573 8.55328 48.4573 8.77897C48.4573 9.00455 48.3694 9.21666 48.2099 9.37613L46.6412 10.9449L42.5309 6.83473C42.2296 6.53346 41.741 6.53346 41.4396 6.83473C41.1382 7.13619 41.1382 7.62467 41.4396 7.92614L45.5498 12.0363L43.7575 13.8286L41.951 12.0221C41.6497 11.7209 41.1611 11.7209 40.8597 12.0221C40.5584 12.3236 40.5584 12.8121 40.8597 13.1135L42.6662 14.9199L40.8739 16.7122L39.0674 14.9057C38.7661 14.6045 38.2775 14.6045 37.9761 14.9057C37.6748 15.2072 37.6748 15.6957 37.9761 15.9971L39.7826 17.8035L37.9903 19.5958L33.88 15.4854C33.5788 15.1842 33.0901 15.184 32.7887 15.4854C32.4874 15.7869 32.4874 16.2754 32.7887 16.5768L36.899 20.6871L35.1067 22.4794L33.3003 20.6729C32.9989 20.3716 32.5103 20.3716 32.2089 20.6729C31.9076 20.9744 31.9076 21.4629 32.2089 21.7643L34.0153 23.5707L32.4991 25.0869L24.9123 17.5001L26.3234 16.0888C26.6248 15.7874 26.6248 15.2989 26.3234 14.9974C26.022 14.6962 25.5335 14.6962 25.2321 14.9974L23.8209 16.4087L9.58571 2.17399C8.59567 1.18395 7.27936 0.638733 5.87926 0.638733C4.47916 0.638831 3.16285 1.18405 2.17291 2.17408C1.18278 3.16412 0.637561 4.48033 0.637561 5.88053C0.637561 7.28063 1.18278 8.59694 2.17281 9.58697L16.4077 23.8218L0.699085 39.5307C-0.23197 40.4619 -0.23197 41.9768 0.699085 42.908L7.09137 49.3004C7.54235 49.7513 8.14205 49.9998 8.77994 49.9998C9.41783 49.9998 10.0175 49.7513 10.4685 49.3004L26.1773 33.5916L27.2962 34.7104C27.5975 35.0117 28.0861 35.0117 28.3875 34.7104C28.6888 34.4089 28.6888 33.9205 28.3875 33.619L26.8431 32.0747C26.8131 32.0272 26.778 31.9821 26.7367 31.9408C26.6954 31.8995 26.6503 31.8643 26.6029 31.8343L9.8819 15.1133L11.9513 13.0439L13.2308 14.3234C13.3815 14.474 13.579 14.5494 13.7765 14.5494C13.9741 14.5494 14.1715 14.474 14.3222 14.3234C14.6236 14.0219 14.6236 13.5335 14.3222 13.232L13.0428 11.9526L15.1123 9.88317L23.2743 18.0452C23.2746 18.0456 23.2749 18.0459 23.2753 18.0463C23.2756 18.0466 23.2759 18.0468 23.2763 18.0472L31.878 26.6489C31.8993 26.677 31.9219 26.7046 31.9476 26.7302C31.9733 26.7559 32.0007 26.7786 32.0289 26.7999L43.4808 38.2518L41.4114 40.3213L29.8571 28.767C29.8502 28.7594 29.8439 28.7515 29.8366 28.7443L25.229 24.1366C25.2213 24.129 25.213 24.1223 25.2052 24.1151L17.0663 15.9762C16.7649 15.675 16.2763 15.675 15.975 15.9762C15.6736 16.2777 15.6736 16.7662 15.975 17.0676L40.3198 41.4125L38.2503 43.4819L30.9167 36.1482C30.6153 35.8469 30.1267 35.8469 29.8254 36.1482C29.524 36.4497 29.524 36.9381 29.8254 37.2396L37.7047 45.1189C37.7796 45.1938 37.8723 45.2543 37.9711 45.2925L47.2951 48.9126C47.4422 48.9696 47.5955 48.9973 47.7476 48.9973C48.074 48.9973 48.3945 48.8696 48.6337 48.6302C48.9843 48.2794 49.0947 47.754 48.9149 47.2917L45.2911 37.9719C45.2528 37.8735 45.1923 37.7805 45.1175 37.7058L33.5903 26.1786L49.3012 10.4675C50.2324 9.53639 50.2324 8.02145 49.3012 7.0903ZM25.0863 32.5003L23.5719 34.0142L21.7655 32.2078C21.4641 31.9065 20.9755 31.9065 20.6742 32.2078C20.3728 32.5092 20.3728 32.9977 20.6742 33.2992L22.4806 35.1056L20.6883 36.8979L16.5781 32.7877C16.2767 32.4864 15.7881 32.4864 15.4868 32.7877C15.1854 33.0891 15.1854 33.5776 15.4868 33.8791L19.597 37.9893L17.8047 39.7816L15.9983 37.9752C15.6969 37.6739 15.2084 37.6739 14.907 37.9752C14.6056 38.2766 14.6056 38.7651 14.907 39.0666L16.7134 40.8729L14.9212 42.6652L13.1147 40.8588C12.8133 40.5575 12.3248 40.5575 12.0234 40.8588C11.722 41.1602 11.722 41.6487 12.0234 41.9502L13.8298 43.7566L12.0376 45.5489L7.92731 41.4386C7.62594 41.1374 7.13737 41.1374 6.836 41.4386C6.53463 41.7401 6.53463 42.2286 6.836 42.53L10.9463 46.6402L9.3775 48.2089C9.21793 48.3685 9.00582 48.4564 8.78024 48.4564C8.55465 48.4564 8.34254 48.3685 8.18297 48.2089L1.79069 41.8166C1.46139 41.4873 1.46139 40.9514 1.79069 40.6221L17.4994 24.9133L25.0863 32.5003ZM3.26412 8.49567C1.82213 7.05367 1.82213 4.70739 3.26412 3.26539C4.70612 1.8233 7.0524 1.8233 8.4944 3.26539L10.9335 5.70446L5.70319 10.9347L3.26412 8.49567ZM11.4062 11.4063C11.406 11.4065 11.4058 11.4066 11.4057 11.4068C11.4055 11.407 11.4054 11.4072 11.4052 11.4073L8.79059 14.0219L6.79459 12.0259L12.0249 6.79567L14.0209 8.79166L11.4062 11.4063ZM47.2368 47.2342L39.6329 44.2822L44.2814 39.6337L47.2368 47.2342Z" fill="black"/>
</g>
<defs>
<clipPath id="clip0">
<rect width="50" height="50" fill="white"/>
</clipPath>
</defs>
</svg>
