<svg width="60" height="60" viewBox="0 0 60 60" fill="none" xmlns="http://www.w3.org/2000/svg">
<g clip-path="url(#clip0)">
<path d="M57.6245 13.2384L30.3822 0.086875C30.1407 -0.0296094 29.8594 -0.0296094 29.618 0.086875L2.37554 13.2384C2.07179 13.385 1.87878 13.6926 1.87878 14.0298V45.9692C1.87878 46.3064 2.07179 46.6141 2.37554 46.7607L29.6179 59.9121C29.7386 59.9704 29.8694 59.9996 30 59.9996C30.1307 59.9996 30.2614 59.9704 30.3822 59.9121L57.6245 46.7607C57.9283 46.6141 58.1213 46.3064 58.1213 45.9692V14.03C58.1213 13.6925 57.9282 13.3851 57.6245 13.2384ZM30 1.85441L55.2208 14.0298L47.9098 17.5593C47.8635 17.524 47.8146 17.4914 47.761 17.4655L22.7116 5.37297L30 1.85441ZM20.7266 6.36672L45.9107 18.5245L40.7527 21.0146L15.5791 8.86176L20.7266 6.36672ZM46.4999 20.1918V29.3964L41.682 31.7223V22.5177L46.4999 20.1918ZM56.3635 45.4177L30.8789 57.7203V27.7329L36.9578 24.7983C37.3949 24.5873 37.5782 24.0619 37.3671 23.6247C37.1561 23.1877 36.6307 23.0042 36.1935 23.2154L30 26.2054L27.563 25.0288C27.1258 24.8175 26.6004 25.0011 26.3894 25.4382C26.1783 25.8753 26.3616 26.4007 26.7987 26.6118L29.1211 27.7329V57.7203L3.6366 45.4175V15.4301L23.0428 24.7987C23.166 24.8582 23.2962 24.8863 23.4243 24.8863C23.751 24.8863 24.0648 24.7033 24.2164 24.3893C24.4274 23.9522 24.2441 23.4268 23.807 23.2157L4.77929 14.0298L13.5103 9.81484L39.912 22.5605C39.9159 22.5659 39.9202 22.5707 39.9242 22.576V33.1227C39.9242 33.4252 40.0797 33.7063 40.3359 33.8672C40.4781 33.9565 40.6404 34.0016 40.8032 34.0016C40.9335 34.0016 41.0642 33.9727 41.1852 33.9142L47.761 30.7397C48.0647 30.5931 48.2577 30.2856 48.2577 29.9482V19.3434L56.3635 15.4302V45.4177Z" fill="black"/>
<path d="M10.8897 42.0091L6.89187 40.0792C6.45453 39.8679 5.9293 40.0514 5.71824 40.4885C5.50719 40.9256 5.69047 41.4511 6.12758 41.6622L10.1254 43.5921C10.2486 43.6516 10.3788 43.6798 10.5069 43.6798C10.8336 43.6798 11.1474 43.4967 11.2989 43.1828C11.5101 42.7456 11.3268 42.2203 10.8897 42.0091Z" fill="black"/>
<path d="M14.5691 39.6145L6.89742 35.9109C6.46019 35.6998 5.93484 35.8831 5.72378 36.3203C5.51284 36.7574 5.69613 37.2829 6.13324 37.494L13.8049 41.1975C13.9281 41.257 14.0583 41.2852 14.1864 41.2852C14.5131 41.2852 14.8269 41.1022 14.9784 40.7882C15.1895 40.3509 15.0062 39.8254 14.5691 39.6145Z" fill="black"/>
</g>
<defs>
<clipPath id="clip0">
<rect width="60" height="60" fill="white"/>
</clipPath>
</defs>
</svg>
