<svg width="60" height="60" viewBox="0 0 60 60" fill="none" xmlns="http://www.w3.org/2000/svg">
<path d="M44.2279 14.6854L46.5993 10.5604C46.7077 10.3718 46.7367 10.1478 46.68 9.93783C46.6233 9.72783 46.4856 9.54895 46.297 9.44052L42.944 7.51442C42.7554 7.40609 42.5314 7.37712 42.3214 7.43391C42.1114 7.4907 41.9325 7.62859 41.8242 7.81724L39.4565 11.938C37.3217 11.0172 35.0632 10.4148 32.7534 10.1502V7.64286H34.4175C34.635 7.64286 34.8437 7.55644 34.9975 7.4026C35.1513 7.24876 35.2378 7.04011 35.2378 6.82255V2.9563C35.2378 2.84856 35.2167 2.74186 35.1754 2.64231C35.1342 2.54275 35.0738 2.4523 34.9976 2.37611C34.9215 2.29993 34.831 2.23951 34.7314 2.1983C34.6319 2.1571 34.5252 2.13592 34.4175 2.13599H25.5825C25.4747 2.13592 25.368 2.1571 25.2685 2.1983C25.1689 2.23951 25.0785 2.29993 25.0023 2.37611C24.9261 2.4523 24.8657 2.54275 24.8245 2.64231C24.7833 2.74186 24.7621 2.84856 24.7621 2.9563V6.82255C24.7621 7.04011 24.8486 7.24876 25.0024 7.4026C25.1562 7.55644 25.3649 7.64286 25.5825 7.64286H27.2465V10.1479C24.9367 10.4125 22.6782 11.0148 20.5434 11.9357L18.1757 7.81489C18.1221 7.72144 18.0506 7.63946 17.9653 7.57366C17.88 7.50785 17.7826 7.4595 17.6786 7.43138C17.5746 7.40326 17.466 7.39591 17.3592 7.40976C17.2524 7.4236 17.1493 7.45837 17.0559 7.51208L13.7029 9.43817C13.5144 9.5466 13.3766 9.72549 13.3199 9.93549C13.2632 10.1455 13.2922 10.3694 13.4006 10.558L15.772 14.6854C11.7196 17.6802 8.71545 21.8773 7.18752 26.679C5.65959 31.4807 5.68576 36.6421 7.26231 41.4281C8.83885 46.214 11.8854 50.3805 15.968 53.334C20.0506 56.2876 24.961 57.8776 30 57.8776C35.0389 57.8776 39.9494 56.2876 44.0319 53.334C48.1145 50.3805 51.1611 46.214 52.7376 41.4281C54.3142 36.6421 54.3403 31.4807 52.8124 26.679C51.2845 21.8773 48.2803 17.6802 44.2279 14.6854ZM42.8381 9.34161L44.7679 10.453L42.8704 13.7558C42.2454 13.3565 41.6028 12.9858 40.9425 12.644L42.8381 9.34161ZM26.4028 3.77661H33.5971V6.00224H26.4028V3.77661ZM28.8871 7.64286H31.1128V10.0133C30.7439 9.99599 30.375 9.98427 30 9.98427C29.625 9.98427 29.256 9.99552 28.8871 10.0129V7.64286ZM15.232 10.453L17.1618 9.34442L19.0575 12.644C18.3965 12.9852 17.7539 13.3558 17.1295 13.7558L15.232 10.453ZM30 56.2232C25.5896 56.2232 21.2783 54.9154 17.6113 52.4651C13.9443 50.0148 11.0861 46.5322 9.39841 42.4576C7.71067 38.383 7.26911 33.8994 8.12955 29.5738C8.99 25.2482 11.1138 21.2749 14.2324 18.1564C17.351 15.0379 21.3243 12.9141 25.6499 12.0538C29.9755 11.1934 34.4591 11.6351 38.5337 13.3229C42.6083 15.0107 46.0909 17.8689 48.541 21.536C50.9912 25.2031 52.299 29.5144 52.2989 33.9247C52.292 39.8366 49.9405 45.5044 45.7601 49.6847C41.5797 53.865 35.9119 56.2165 30 56.2232Z" fill="black"/>
<path d="M46.1287 43.1535C47.751 40.3303 48.6006 37.1294 48.5917 33.8732C48.5828 30.6171 47.7158 27.4208 46.0781 24.6065C46.0672 24.5784 46.0547 24.551 46.0406 24.5245C46.026 24.5026 46.0104 24.4815 45.9937 24.4612C44.3798 21.746 42.1051 19.4833 39.3815 17.8837C39.3592 17.8652 39.3357 17.8482 39.3112 17.8326C39.2846 17.8188 39.2572 17.8066 39.2292 17.796C36.4062 16.1736 33.2054 15.324 29.9494 15.3328C26.6934 15.3416 23.4973 16.2085 20.6831 17.8462C20.6546 17.8575 20.6267 17.8703 20.5997 17.8846C20.5781 17.8992 20.5573 17.9148 20.5373 17.9315C17.8218 19.5454 15.5586 21.82 13.9584 24.5437C13.9195 24.588 13.8899 24.6396 13.8712 24.6956C12.2489 27.5187 11.3994 30.7196 11.4083 33.9756C11.4172 37.2317 12.2841 40.4279 13.9218 43.2421C13.9328 43.2703 13.9453 43.2978 13.9593 43.3246C13.9697 43.3424 13.9851 43.3556 13.9964 43.3715C15.6105 46.0931 17.8882 48.3612 20.6165 49.964C20.6395 49.9827 20.6634 50 20.6883 50.016C20.7089 50.0277 20.7314 50.0324 20.7525 50.0427C23.5806 51.6717 26.7889 52.5246 30.0526 52.5153C33.3163 52.506 36.5196 51.6348 39.3384 49.9898C39.3586 49.9799 39.3801 49.9757 39.3998 49.964C39.4195 49.9523 39.4411 49.9335 39.4622 49.9171C42.1839 48.2997 44.4511 46.0186 46.0519 43.2871C46.0645 43.2688 46.0804 43.2552 46.0917 43.2356C46.1058 43.2091 46.1182 43.1817 46.1287 43.1535ZM39.2639 48.1092L38.2097 46.3124C38.0996 46.1247 37.9195 45.9884 37.709 45.9334C37.4985 45.8785 37.2747 45.9094 37.087 46.0195C36.8993 46.1295 36.763 46.3096 36.708 46.5201C36.6531 46.7307 36.684 46.9544 36.794 47.1421L37.8497 48.9431C35.6738 50.0868 33.2738 50.7399 30.8184 50.8565V48.7635C30.8184 48.546 30.732 48.3373 30.5781 48.1835C30.4243 48.0296 30.2157 47.9432 29.9981 47.9432C29.7805 47.9432 29.5719 48.0296 29.4181 48.1835C29.2642 48.3373 29.1778 48.546 29.1778 48.7635V50.8565C26.7552 50.7403 24.3864 50.1016 22.2337 48.9843L23.279 47.1782C23.3846 46.9901 23.4118 46.768 23.3548 46.56C23.2979 46.352 23.1612 46.1748 22.9746 46.0668C22.7879 45.9587 22.5662 45.9286 22.3574 45.9828C22.1487 46.037 21.9697 46.1713 21.8592 46.3565L20.8153 48.1607C18.8209 46.869 17.1179 45.1754 15.8151 43.1882L17.6137 42.1345C17.8004 42.024 17.9358 41.8441 17.9901 41.6341C18.0445 41.424 18.0135 41.2011 17.9038 41.0139C17.7942 40.8267 17.6148 40.6906 17.4051 40.6353C17.1953 40.58 16.9722 40.61 16.7845 40.7188L14.9836 41.7745C13.8397 39.5986 13.1864 37.1986 13.0697 34.7432H15.1626C15.3802 34.7432 15.5888 34.6568 15.7427 34.503C15.8965 34.3491 15.9829 34.1405 15.9829 33.9229C15.9829 33.7053 15.8965 33.4967 15.7427 33.3429C15.5888 33.189 15.3802 33.1026 15.1626 33.1026H13.0697C13.1853 30.6795 13.8235 28.3101 14.9404 26.1567L16.747 27.2015C16.935 27.3049 17.1559 27.3305 17.3626 27.273C17.5692 27.2154 17.7451 27.0792 17.8525 26.8935C17.9599 26.7078 17.9903 26.4874 17.9371 26.2796C17.884 26.0718 17.7516 25.893 17.5683 25.7817L15.7645 24.7377C17.0561 22.7441 18.7494 21.0417 20.7361 19.7395L21.7903 21.5381C21.9008 21.7248 22.0807 21.8601 22.2907 21.9145C22.5007 21.9688 22.7237 21.9378 22.9109 21.8281C23.0981 21.7185 23.2342 21.5392 23.2895 21.3294C23.3448 21.1196 23.3147 20.8965 23.2059 20.7088L22.1503 18.9079C24.3261 17.764 26.7261 17.1108 29.1815 16.9945V19.087C29.1815 19.3045 29.268 19.5132 29.4218 19.667C29.5756 19.8209 29.7843 19.9073 30.0019 19.9073C30.2194 19.9073 30.4281 19.8209 30.5819 19.667C30.7357 19.5132 30.8222 19.3045 30.8222 19.087V16.9945C33.2452 17.11 35.6147 17.748 37.7681 18.8648L36.7209 20.6718C36.6653 20.7651 36.6287 20.8685 36.6133 20.9761C36.598 21.0836 36.6041 21.1932 36.6314 21.2983C36.6587 21.4035 36.7067 21.5021 36.7724 21.5886C36.8382 21.6751 36.9205 21.7476 37.0145 21.8021C37.1085 21.8565 37.2124 21.8917 37.3202 21.9056C37.4279 21.9195 37.5373 21.9119 37.6421 21.8832C37.7469 21.8545 37.8449 21.8053 37.9305 21.7384C38.0161 21.6715 38.0876 21.5883 38.1408 21.4935L39.1847 19.6874C41.1792 20.9794 42.8822 22.6733 44.1848 24.6609L42.3862 25.7146C42.2928 25.7688 42.2109 25.8409 42.1454 25.9268C42.0799 26.0127 42.032 26.1107 42.0045 26.2152C41.977 26.3196 41.9703 26.4285 41.985 26.5355C41.9996 26.6426 42.0353 26.7457 42.0899 26.8389C42.1445 26.9321 42.217 27.0136 42.3032 27.0787C42.3893 27.1439 42.4876 27.1913 42.5921 27.2184C42.6967 27.2455 42.8056 27.2516 42.9126 27.2365C43.0195 27.2214 43.1225 27.1853 43.2154 27.1302L45.0169 26.0746C46.1603 28.2506 46.8134 30.6505 46.9303 33.1059H44.8373C44.6198 33.1059 44.4111 33.1923 44.2573 33.3461C44.1034 33.5 44.017 33.7086 44.017 33.9262C44.017 34.1437 44.1034 34.3524 44.2573 34.5062C44.4111 34.6601 44.6198 34.7465 44.8373 34.7465H46.9303C46.8144 37.1689 46.1762 39.5377 45.0595 41.6906L43.2534 40.6452C43.0651 40.5363 42.8412 40.5066 42.6309 40.5627C42.4207 40.6189 42.2414 40.7562 42.1324 40.9445C42.0234 41.1329 41.9937 41.3568 42.0499 41.567C42.106 41.7773 42.2434 41.9566 42.4317 42.0656L44.2354 43.1095C42.944 45.1037 41.2508 46.8065 39.2639 48.1092Z" fill="black"/>
<path d="M42.3722 33.9247C42.3722 33.7071 42.2858 33.4985 42.1319 33.3446C41.9781 33.1908 41.7694 33.1044 41.5519 33.1044H33.6534C33.4968 32.4128 33.1476 31.7797 32.6463 31.2782C32.1449 30.7768 31.5119 30.4275 30.8203 30.2708V22.3728C30.8203 22.1552 30.7339 21.9466 30.58 21.7928C30.4262 21.6389 30.2176 21.5525 30 21.5525C29.7824 21.5525 29.5738 21.6389 29.42 21.7928C29.2661 21.9466 29.1797 22.1552 29.1797 22.3728V30.2708C28.5252 30.4173 27.9221 30.7369 27.4333 31.1962C26.9446 31.6555 26.5881 32.2375 26.4011 32.8816C26.214 33.5257 26.2034 34.2082 26.3702 34.8578C26.5371 35.5074 26.8753 36.1003 27.3495 36.5745C27.8237 37.0488 28.4166 37.387 29.0661 37.5539C29.7157 37.7208 30.3982 37.7103 31.0423 37.5233C31.6864 37.3364 32.2685 36.98 32.7278 36.4912C33.1871 36.0025 33.5068 35.3994 33.6534 34.745H41.5519C41.7694 34.7449 41.978 34.6584 42.1318 34.5046C42.2856 34.3508 42.3721 34.1422 42.3722 33.9247ZM30 36.0308C29.5833 36.0309 29.176 35.9074 28.8295 35.6759C28.483 35.4445 28.2129 35.1155 28.0534 34.7306C27.8939 34.3456 27.8522 33.922 27.9334 33.5133C28.0147 33.1047 28.2153 32.7293 28.51 32.4346C28.8046 32.14 29.18 31.9394 29.5887 31.8581C29.9974 31.7768 30.421 31.8186 30.8059 31.9781C31.1908 32.1376 31.5198 32.4077 31.7513 32.7542C31.9827 33.1006 32.1062 33.508 32.1061 33.9247C32.1052 34.483 31.8831 35.0182 31.4883 35.4129C31.0935 35.8077 30.5583 36.0299 30 36.0308Z" fill="black"/>
</svg>
