<svg width="60" height="60" viewBox="0 0 60 60" fill="none" xmlns="http://www.w3.org/2000/svg">
<g clip-path="url(#clip0)">
<path d="M40.3464 13.51C40.7108 12.6882 40.5678 11.7329 39.9831 11.0644L31.7237 0.827339C31.2949 0.296716 30.6602 -0.00679843 29.9849 0.00011561C29.3103 0.00503747 28.6825 0.313474 28.2609 0.846558L19.9616 11.1329C19.4026 11.8249 19.295 12.756 19.6807 13.5629C20.0584 14.3531 20.8262 14.8437 21.684 14.8436H21.6853H25.3126V22.8416C25.3126 23.4889 25.8372 24.0135 26.4845 24.0135C27.1317 24.0135 27.6563 23.4889 27.6563 22.8416V13.6717C27.6563 13.0245 27.1317 12.4999 26.4845 12.4999H21.8702L29.9999 2.42354L38.1298 12.5H33.5157C32.8685 12.5 32.3438 13.0246 32.3438 13.6719V57.0703C32.3438 57.3879 32.0754 57.6563 31.7579 57.6563H28.2421C27.9246 57.6563 27.6562 57.3879 27.6562 57.0703V33.3886C27.6562 32.7414 27.1316 32.2167 26.4843 32.2167C25.8371 32.2167 25.3125 32.7414 25.3125 33.3886V57.0703C25.3125 58.6857 26.6267 60 28.2421 60H31.7579C33.3733 60 34.6875 58.6857 34.6875 57.0703V14.8437H38.3146C39.203 14.8437 39.9816 14.3327 40.3464 13.51Z" fill="black"/>
<path d="M57.0703 50.6249H52.0313V35.065H55.6583C56.5467 35.065 57.3253 34.5539 57.69 33.7313C58.0545 32.9095 57.9114 31.9541 57.3267 31.2858L49.0674 21.0488C48.6386 20.5181 48.0034 20.2166 47.3287 20.2215C46.654 20.2264 46.0263 20.5347 45.6046 21.0678L37.3052 31.3544C36.7462 32.0465 36.6386 32.9775 37.0244 33.7844C37.4021 34.5744 38.1699 35.0651 39.0277 35.0651H39.029H42.6563V55.3125C42.6563 57.8971 44.7591 59.9999 47.3438 59.9999H57.0703C58.6857 59.9999 60 58.6857 60 57.0703V53.5546C60 51.9391 58.6857 50.6249 57.0703 50.6249ZM57.6563 57.0703C57.6563 57.3878 57.3879 57.6562 57.0703 57.6562H47.3438C46.0515 57.6562 45.0001 56.6048 45.0001 55.3125V33.8931C45.0001 33.2459 44.4754 32.7212 43.8282 32.7212H39.2139L47.3438 22.6449L55.4735 32.7212H50.8595C50.2123 32.7212 49.6876 33.2459 49.6876 33.8931V51.7967C49.6876 52.4439 50.2123 52.9686 50.8595 52.9686H57.0704C57.388 52.9686 57.6564 53.2369 57.6564 53.5545V57.0703H57.6563Z" fill="black"/>
<path d="M14.3955 30.4432C13.9739 29.9102 13.346 29.6018 12.6714 29.5969C12.6659 29.5969 12.6605 29.5969 12.6551 29.5969C11.9851 29.5969 11.358 29.8979 10.9323 30.4249L2.67327 40.6614C2.08874 41.3297 1.94566 42.285 2.30999 43.1068C2.67479 43.9296 3.45327 44.4405 4.34166 44.4405H7.96872V50.6251H2.92968C1.31425 50.6251 0 51.9394 0 53.5548V57.0704C0 58.6858 1.31425 60.0001 2.92968 60.0001H12.6562C15.2409 60.0001 17.3437 57.8973 17.3437 55.3126V44.4405H20.9703H20.9714C21.83 44.4405 22.5979 43.9498 22.9756 43.1597C23.3612 42.3529 23.2537 41.4217 22.695 40.7303L14.3955 30.4432ZM16.1719 42.0967C15.5247 42.0967 15.0001 42.6213 15.0001 43.2686V55.3125C15.0001 56.6048 13.9487 57.6562 12.6563 57.6562H2.92968C2.6121 57.6562 2.34374 57.3879 2.34374 57.0703V53.5547C2.34374 53.2371 2.6121 52.9687 2.92968 52.9687H9.14059C9.78781 52.9687 10.3125 52.4441 10.3125 51.7969V43.2686C10.3125 42.6213 9.78781 42.0967 9.14059 42.0967H4.52647L12.6563 32.0202L20.7862 42.0967H16.1719Z" fill="black"/>
<path d="M26.4845 29.2875C27.1317 29.2875 27.6564 28.7628 27.6564 28.1156V28.1148C27.6564 27.4675 27.1317 26.9434 26.4845 26.9434C25.8373 26.9434 25.3126 27.4684 25.3126 28.1156C25.3126 28.7628 25.8373 29.2875 26.4845 29.2875Z" fill="black"/>
</g>
<defs>
<clipPath id="clip0">
<rect width="60" height="60" fill="white"/>
</clipPath>
</defs>
</svg>
