<svg width="36" height="34" viewBox="0 0 36 34" fill="none" xmlns="http://www.w3.org/2000/svg">
<path d="M35.124 30.228C36.2858 28.2225 36.2932 25.8322 35.1388 23.8341L23.5498 3.76432C22.4028 1.74402 20.3307 0.545166 18.007 0.545166C15.6832 0.545166 13.6111 1.75142 12.4641 3.75692L0.860327 23.8489C-0.294129 25.8692 -0.286728 28.2743 0.882528 30.2798C2.03698 32.2631 4.10168 33.4546 6.41059 33.4546H29.5589C31.8752 33.4546 33.9547 32.2483 35.124 30.228ZM32.6079 28.7775C31.964 29.8876 30.8244 30.5462 29.5515 30.5462H6.40319C5.14513 30.5462 4.01288 29.9024 3.38385 28.8145C2.74742 27.7119 2.74002 26.3946 3.37645 25.2846L14.9802 5.19999C15.6092 4.09734 16.7341 3.44611 18.007 3.44611C19.2724 3.44611 20.4047 4.10474 21.0337 5.20739L32.6301 25.292C33.2517 26.3724 33.2443 27.6749 32.6079 28.7775Z" fill="#FF0000"/>
</svg>
