<svg id="Isolation_Mode" data-name="Isolation Mode" xmlns="http://www.w3.org/2000/svg" viewBox="0 0 124.47 114.26"><title>Artboard 1</title><style>path{fill: #00a648;}</style><path d="M43.39,17c0-4-.1-7.28,0-10.59C43.59,1.75,45.25.11,49.89.07q12.24-.13,24.49,0c5,.06,6.34,1.6,6.48,6.76.07,2.84,0,5.67.1,8.5a8.75,8.75,0,0,0,.43,1.6c1.53.1,3.28.28,5,.29,9,0,18,0,27,0,8.52,0,11,2.4,11,11.05.06,25.16,0,50.33,0,75.49,0,.5,0,1,0,1.5-.41,6.29-3.12,9-9.5,9q-52.74,0-105.48,0c-6.7,0-9.41-2.71-9.43-9.41q-.06-39,0-78c0-7,2.75-9.57,9.78-9.6,9.33,0,18.66,0,28,0C39.43,17.2,41.06,17.06,43.39,17Zm19.12,5.29h0c-17.16,0-34.31,0-51.47,0-5.42,0-6.24.78-6.24,5.94q0,37.48,0,75c0,5.24.75,6.08,5.55,6.09q51.72,0,103.44,0c4.85,0,5.54-.73,5.76-5.39,0-1,0-2,0-3q-.06-36.22-.11-72.46c0-5.39-.66-6.11-6-6.12C96.49,22.21,79.5,22.24,62.51,22.24ZM48.61,5.35c-.23,4.2-1.21,8,.51,11.43H75.73V5.35Z"/><path d="M29.6,65.75C30,48.16,41.42,34.34,58.41,31.9c10.45-1.51,19.37,2.17,26.6,9.69,12.41,12.92,12.7,34.55.56,47.75C77.26,98.36,66.89,102,54.83,99S35.06,87.81,31.39,76C30.36,72.73,30.17,69.18,29.6,65.75ZM62.06,36.83c-13.18.05-24.13,9.7-26.88,23.7-2.83,14.38,6.13,29.33,19.93,33.26C68.56,97.63,82.7,90,87.81,76.07,94.73,57.26,81.27,36.75,62.06,36.83Z"/><path d="M69.94,57.43h7.52c2.23,0,3.39,1.09,3.39,3.36,0,3.32,0,6.65,0,10,0,2.3-1.2,3.31-3.43,3.29s-4.56,0-7.5,0c0,3.09,0,5.54,0,8,0,2.27-1,3.4-3.26,3.47-.5,0-1,0-1.5.07-10.26.56-10.26.56-11-9.48a13.22,13.22,0,0,0-.62-2c-2,0-4.08-.08-6.19,0-2.77.12-4-1.23-4-3.88v-9c0-2.71,1.39-3.91,4.08-3.8,2,.08,4,0,6.78,0,0-2.25,0-4.17,0-6.08.07-5,.28-5.22,5.46-5.3,1.5,0,3,0,4.49,0,5.57.06,5.66.14,5.73,5.5C70,53.3,69.94,55.08,69.94,57.43Zm5.83,5.26H69c-2.64,0-4-1.2-3.89-4,.08-2.42,0-4.85,0-7.32H59c0,2.61-.08,4.9,0,7.18.13,3-1.27,4.24-4.2,4.12-2.08-.08-4.16,0-6.65,0,.19,2.54.32,4.26.46,6,1.51.14,2.49.32,3.46.31,6.58-.06,7.06-.46,7,6.77a38.57,38.57,0,0,0,.41,4.33,26.68,26.68,0,0,0,2.91.22,27.4,27.4,0,0,0,2.76-.42c0-1.87,0-3.5,0-5.12.07-5.56.15-5.63,5.48-5.77,1.62,0,3.24-.19,5.14-.3Z"/></svg>