<svg id="Layer_1" data-name="Layer 1" xmlns="http://www.w3.org/2000/svg" viewBox="0 0 140.36 121.98"><defs><style>.cls-1{fill: #00a648;}</style></defs><title>Artboard 1</title><path class="cls-1" d="M44,45.19,27.24,62.05l1.16,1.23a1.38,1.38,0,0,1,.1,2.12,1.28,1.28,0,0,1-2.09-.1c-1.16-1.61-2.45-1.58-4.28-1.08a12,12,0,0,1-12-3.28c-2.9-2.81-5.73-5.69-8.59-8.55-1.33-1.33-1.33-1.83,0-3.17.79-.79,1.58-1.59,2.38-2.37A1.38,1.38,0,0,1,6,46.72a1.4,1.4,0,0,1-.14,2.21c-.62.56-1.31,1-2,1.59.52.59.74.87,1,1.12C7.23,54,9.6,56.4,12,58.75a10,10,0,0,0,14.16,0Q33.62,51.42,41,44a9.79,9.79,0,0,0,0-14c-2.39-2.42-4.8-4.81-7.21-7.21-.25-.25-.52-.47-.92-.85-1.89,1.93-3.72,3.82-5.58,5.69q-3.46,3.49-7,7c-.89.88-1.78,1-2.37.22-.78-1-.25-1.68.46-2.39L29.24,21.51c.82-.82,1.63-1.65,2.47-2.46a1.47,1.47,0,0,1,2.4,0c3.17,3.15,6.44,6.22,9.45,9.53,3.39,3.72,4,8.15,2.42,12.87a1.43,1.43,0,0,0,.4,1.78c1.11,1,2.12,2.15,3.12,3.17,1.58-.56,2-1.66,2.34-3.07C53.18,37,55.55,31.14,60.4,26.6c3.75-3.51,8.21-5.91,12.79-8.15,3.3-1.61,6.56-3.31,9.81-5A13.82,13.82,0,0,0,84.94,12c1.49-1.15,2.2-2.34,1.57-4.47-.51-1.74-.11-3.78,0-5.67A1.35,1.35,0,0,1,88.3.58c1,.25,1.26,1,1,2a8.81,8.81,0,0,0,4.2,10.22c3.51,2.2,7.29,4,11,5.82,4.5,2.23,8.87,4.63,12.56,8.08,3.93,3.67,6.13,8.33,7.61,13.39.45,1.53.78,3.1,1.14,4.65a1.53,1.53,0,0,1-1,2,1,1,0,0,0-.55.62c-.36,1.45-.75,1.73-2.28,1.49-2.56-.42-5.12-.89-7.69-1.26A188.56,188.56,0,0,0,72.49,46c-6.53.5-13,1.43-19.54,2.17-.34,0-.67.15-1.24.27.77.8,1.38,1.46,2,2.09,3.08,3.08,6.19,6.14,9.23,9.26a3.12,3.12,0,0,1,.84,1.86c.19,6,.29,12,.4,18,0,1.39-.48,1.92-1.84,1.92-6.24,0-12.48,0-18.72,0a2.84,2.84,0,0,1-1.77-.76c-3.55-3.46-7-7-10.54-10.49-.93-.94-1-1.71-.37-2.39s1.47-.57,2.38.33l8.92,8.89c.28.28.58.55.78.74L59.81,61ZM54.37,45A206.07,206.07,0,0,1,123,46.06a2.15,2.15,0,0,0,0-.52c-.29-1.33-.56-2.66-.91-4-1.77-6.84-5.27-12.51-11.43-16.22-2.7-1.63-5.52-3.06-8.31-4.53-3.28-1.74-6.63-3.35-9.85-5.19a32.36,32.36,0,0,1-3.94-3.13c-2.51,2.83-5.79,4.57-9.14,6.21-3.15,1.54-6.33,3-9.46,4.65-7.27,3.74-12.4,9.32-14.55,17.36C55.08,42.06,54.76,43.4,54.37,45ZM61,78.6V64.94L47.35,78.6Z"/><path class="cls-1" d="M123,71.88l-1.18.63c-4.54,2.54-9.31,4.26-14.63,3.78-6.85-.61-11.81-4.25-15.51-9.85a1.43,1.43,0,0,1,.43-2.18c.93-.47,1.58,0,2.1.76,2.94,4.51,6.93,7.49,12.33,8.3,4.33.65,8.28-.68,12.18-2.38a4.91,4.91,0,0,0,3.24-4.45c.55-4.64,1.4-9.25,2.15-13.86.27-1.72,1.3-2.11,2.68-1.12a1.67,1.67,0,0,0,1,.17c.68-.06,1.34-.28,2-.3,2.62-.08,4.45,1.46,4.44,4.11,0,3.23-.24,6.47-.56,9.69a53,53,0,0,1-1.23,7.19c-.91,3.72-2.78,6.8-6.43,8.49a1.16,1.16,0,0,0-.58.69c-1.53,6.73-5.12,12.42-9.39,17.62-4.85,5.89-9.91,11.63-15.2,17.12-6.7,7-17.29,6.86-24.21.1-1.29-1.25-2.53-2.56-3.78-3.86-.84-.88-.93-1.8-.21-2.4.88-.74,1.61-.33,2.29.38,1.24,1.29,2.48,2.6,3.76,3.87A14.48,14.48,0,0,0,99,114.21c6.44-6.58,12.72-13.31,17.89-21,3-4.4,5.58-9,6.1-14.42C123.16,76.6,123,74.36,123,71.88Zm3.68-17.25c-.23,7.49-1.24,15-.36,22.7a7.35,7.35,0,0,0,2-2.4,35.19,35.19,0,0,0,2.1-6.93c.57-3.74.78-7.54,1-11.31.15-2.26-.54-2.74-2.7-2.27A16.81,16.81,0,0,1,126.66,54.63Z"/><path class="cls-1" d="M80.19,99.59c-.15-.06-.36-.16-.58-.24-2.18-.8-2.4-1.7-.79-3.34A13.25,13.25,0,0,1,86,92.1a3.2,3.2,0,0,1,1.9.44,1.55,1.55,0,0,0,1.86,0,3.17,3.17,0,0,1,3-.29,14.33,14.33,0,0,1,6.42,4c1.12,1.23.9,2.37-.69,2.79-1.25.32-1,1.21-1.38,2-1,2.31-2.67,4.2-5.29,4.6a22.27,22.27,0,0,1-5.71.08c-2.75-.31-4.44-2.2-5.66-4.52A5,5,0,0,1,80.19,99.59Zm2.09-2.47a30.17,30.17,0,0,0,13-.28,11.08,11.08,0,0,0-3.49-1.74c-.58-.13-1.32.61-2,.76a3.16,3.16,0,0,1-1.88-.07A4.38,4.38,0,0,0,82.28,97.12Zm11.82,3.3H83.21A4.39,4.39,0,0,0,86.53,103a23.23,23.23,0,0,0,4.17,0A4.23,4.23,0,0,0,94.1,100.42Z"/><path class="cls-1" d="M54.34,121.27a1.47,1.47,0,0,1-1.43-1.57A7.48,7.48,0,0,0,46,112.41a2.68,2.68,0,0,1-1.66-.7c-.82-1,0-2.11,1.54-2.23a7.41,7.41,0,0,0,6.8-5.63,9.85,9.85,0,0,0,.22-1.54c.07-1,.44-1.69,1.49-1.65s1.38.75,1.44,1.72a7.14,7.14,0,0,0,4.63,6.56,9.79,9.79,0,0,0,2.56.53c.9.11,1.6.47,1.63,1.41A1.43,1.43,0,0,1,63,112.42a7.45,7.45,0,0,0-7.22,7.21A1.52,1.52,0,0,1,54.34,121.27Zm2.78-10.34-2.71-2.77L51.55,111l2.79,2.79Z"/><path class="cls-1" d="M139.65,29.81a30.41,30.41,0,0,1-7,19.64c-.27.33-.64.79-1,.8-.52,0-1.35-.14-1.53-.49a2.18,2.18,0,0,1,.08-1.8c1-1.74,2.38-3.31,3.32-5.1a25.57,25.57,0,0,0,1.18-22.31l-.4-1a1.35,1.35,0,0,1,.7-2,1.33,1.33,0,0,1,1.93.86c.82,2.57,1.65,5.15,2.3,7.77A20.84,20.84,0,0,1,139.65,29.81Z"/><path class="cls-1" d="M69,112.93c-.37-.53-1-1-1.08-1.59-.61-3.22-1.66-4.34-4.84-4.81-.84-.13-1.37-.56-1.39-1.38s.51-1.36,1.39-1.48c3.14-.46,4.31-1.64,4.81-4.84a1.42,1.42,0,0,1,2.84,0c.59,3.36,1.54,4.32,4.89,4.88a1.43,1.43,0,0,1,0,2.85c-3.3.53-4.2,1.49-4.91,4.9-.11.56-.74,1-1.14,1.53Zm.33-9.28L68,104.91l1.26,1.65L70.82,105Z"/><path class="cls-1" d="M88.66,84.89c-1.36,0-2.72,0-4.07,0a3.81,3.81,0,0,1-3.52-5,13.21,13.21,0,0,1,.83-2.11A1.31,1.31,0,0,1,83.69,77a1.38,1.38,0,0,1,.84,1.86c-.18.53-.43,1-.61,1.56-.34,1,0,1.63,1,1.65q3.89.09,7.77,0c1,0,1.34-.76,1-1.7a6,6,0,0,1-.68-1.9,2,2,0,0,1,.75-1.62,1.75,1.75,0,0,1,1.67.45A11,11,0,0,1,96.67,81a3.69,3.69,0,0,1-3.58,3.88c-1.48.08-3,0-4.43,0Z"/><path class="cls-1" d="M68.51,76.4l-2-.1c-.93-.06-1.59-.54-1.57-1.47s.71-1.46,1.72-1.39a16.9,16.9,0,0,0,7.42-1,18.36,18.36,0,0,0,8.44-6.83c.16-.23.3-.48.46-.71a1.41,1.41,0,0,1,2-.59,1.43,1.43,0,0,1,.36,2.2,21.94,21.94,0,0,1-6,6.32A19.11,19.11,0,0,1,68.51,76.4Z"/><path class="cls-1" d="M88.24,60c3,.4,5.86.73,8.66,1.15,1.18.18,1.7.87,1.52,1.74s-1,1.32-2.17,1a36.18,36.18,0,0,0-16.17.16c-1.25.28-2,0-2.22-.95s.31-1.64,1.56-1.84C82.4,60.78,85.41,60.38,88.24,60Z"/><path class="cls-1" d="M65.23,99.89c-.41.41-.76,1.06-1.2,1.13a2,2,0,0,1-1.62-.58c-1.9-2.51-3.78-5.06-5.5-7.7C55.81,91.05,55,89.17,54,87.38a1.36,1.36,0,0,1,.63-2.09,1.38,1.38,0,0,1,1.95.86,64.29,64.29,0,0,0,7.89,12.4A10.25,10.25,0,0,1,65.23,99.89Z"/><path class="cls-1" d="M63.89,83c.33-.42.56-1,.94-1.14a2.06,2.06,0,0,1,1.62.19A30.28,30.28,0,0,1,69,84.52Q71,86.46,72.92,88.4a4.67,4.67,0,0,1,.59.74,1.37,1.37,0,0,1-.26,1.94,1.24,1.24,0,0,1-1.82-.16l-5.1-5c-.57-.56-1.16-1.1-1.69-1.7A7.89,7.89,0,0,1,63.89,83Z"/></svg>