<svg id="Isolation_Mode" data-name="Isolation Mode" xmlns="http://www.w3.org/2000/svg" viewBox="0 0 233.4 332.07"><title>Artboard 1</title><style>path{fill: #00a648;}</style><path d="M177.44,98.1c0-16.66.5-33.34-.12-50-.8-21-18-38.07-38.77-39.41-21.44-1.38-38.63,12.16-43,33.69-.81,4.05-.16,6.77,3.81,9,5.23,2.89,9.93,6.73,15.09,9.76,3.84,2.27,4.8,5.33,4.79,9.55-.12,29,0,58-.09,87,0,3.51.79,5.85,3.84,7.83a121.36,121.36,0,0,1,13.63,10.11,10.22,10.22,0,0,1,3.41,6.51c.36,10.65.32,21.33,0,32a8.57,8.57,0,0,1-2.93,5.75c-6,4.72-12.32,9.12-18.68,13.39a10.48,10.48,0,0,1-5.56,1.54q-22.74.19-45.49,0a10.18,10.18,0,0,1-5.21-1.21c-7-4.52-13.91-9.17-20.62-14.09a7.13,7.13,0,0,1-2.4-5c-.22-11.16-.26-22.33,0-33.49,0-1.78,1.56-4,3.05-5.17A174.35,174.35,0,0,1,57,165.51c3-1.9,4.11-4.11,4.09-7.7-.14-29.16,0-58.33-.17-87.49,0-4.52,1.15-7.46,5.3-9.63,5.45-2.85,10.51-6.43,15.85-9.49a8.26,8.26,0,0,0,4.65-6.88C89.93,20.09,106.63,3.18,129.64.37,158.41-3.15,185.27,19,186.05,48.11c.82,30.65.32,61.33.38,92,0,9.47,1.27,18.68,6.52,26.82,7.47,11.57,17.94,18.53,31.81,20,1.16.12,2.31.34,3.47.38,3.06.08,5.38,1.14,5.16,4.63s-2.92,3.9-5.81,3.91c-22,.07-43.55-17.32-48.11-39.39a93.17,93.17,0,0,1-1.54-17.36c-.22-13.66-.07-27.33-.07-41Zm-66.9,62.17v-4.89c0-24-.69-48,.3-71.9.45-11.12-2.09-18.69-12.71-22.76a8.33,8.33,0,0,1-2.48-1.65c-3.16-2.89-6.11-2.91-9.66-.31a130.29,130.29,0,0,1-13.17,8.11,5.9,5.9,0,0,0-3.4,5.91c.13,27.79.08,55.58.1,83.37,0,1.29.16,2.58.26,4.12Zm21,48.77c0-3.53-.47-6.75.08-9.78,2.27-12.51-2-21.48-13.65-26.79-2.62-1.2-5.29-3.14-8-3.21-13.3-.33-26.61-.19-39.92-.08a9.94,9.94,0,0,0-5.1,1.34c-5.16,3.35-10.15,6.95-15.14,10.55-.88.64-2,1.71-2,2.6-.16,8.4-.1,16.8-.1,25.37Zm-7.27,9.07H55.13c6.44,4.81,11.61,9.12,19.71,8.46a186.27,186.27,0,0,1,28.93,0C112,227.16,118.16,224.07,124.22,218.11Z"/><path d="M89.21,332.07c-32.46-.43-61.6-12-86.24-34.79-1-.91-2.44-1.74-2.71-2.84-.47-1.87-.16-3.92-.18-5.89,2.09,0,4.72-.84,6.16.12,3.55,2.39,6.45,5.73,9.81,8.44a119.48,119.48,0,0,0,156.41-5.81c2.52-2.36,5.26-6.68,9-2.65s-.53,6.55-3.15,9C153.46,320.49,124.1,331.91,89.21,332.07Z"/><path d="M90.37,302.91C64.73,302.7,42.11,293.7,22.93,276c-1-.9-2.4-1.85-2.57-2.94-.28-1.73-.26-4.1.73-5.26.81-.95,3.3-.89,4.9-.57,1.12.23,2,1.65,3,2.55a90.29,90.29,0,0,0,123.29.38c1-.9,1.86-2.39,3-2.56,1.87-.3,4.38-.4,5.65.62.91.73,1,3.92.14,5.14-1.66,2.41-4.1,4.33-6.39,6.24C136.18,295.06,114.89,302.73,90.37,302.91Z"/><path d="M93.42,273.83C72,273.44,56,267.14,42.66,254.36c-1.37-1.32-1.88-4-1.87-6.06,0-.81,2.57-2.38,3.83-2.24,1.6.17,3.24,1.51,4.54,2.7,8.19,7.44,17.57,12.67,28.41,14.85,20.39,4.1,38.59-.59,54.34-14.32.63-.54,1.23-1.12,1.83-1.69,2.11-2,4.84-2.79,6.37-.2.92,1.53.59,5.13-.63,6.39a63.22,63.22,0,0,1-31.26,17.72C102.44,272.89,96.44,273.37,93.42,273.83Z"/></svg>