<svg id="Isolation_Mode" data-name="Isolation Mode" xmlns="http://www.w3.org/2000/svg" viewBox="0 0 121.85 137.34"><title>Artboard 1</title><path d="M121.69,102.4c0,10.9-3.58,19.76-11.26,26.77a31,31,0,0,1-43.25-1.25c-12.06-12.21-13.35-32.61-2.93-46.21C72.4,71.08,85.43,66.62,98,70.15c12.17,3.42,21.86,14.93,23.38,27.81C121.56,99.6,121.61,101.27,121.69,102.4Zm-4.85.93C116.92,88.76,106.37,76,93,74.46,78.55,72.8,65.74,82.24,62.66,96.79,59.52,111.65,68,126.71,81.8,131,99.25,136.34,116.72,122.55,116.84,103.33Z" fill="#00a648"/><path d="M64.43,132.14v4.66a5.24,5.24,0,0,1-1.49.54c-18,0-36,.13-54,.06-5.62,0-8.52-3-8.92-8.65-.09-1.16,0-2.33,0-3.5Q0,75.78,0,26.3a30.61,30.61,0,0,1,.22-5C1,17.07,3.35,14.91,7.62,14.5c1.32-.13,2.66-.07,4-.08H18c.17,1.64.31,3,.49,4.72-1.64.15-2.93.35-4.21.36-8.71.06-9.49-1.5-9.47,9.7.07,31.32,0,62.64,0,94,0,1.34,0,2.67,0,4,.22,4.2.88,4.93,5.11,5,8.33.07,16.66,0,25,0Z" fill="#00a648"/><path d="M21.89,33.52c0-4.41-.32-8.4.07-12.32.58-5.85,4.78-9.6,10.83-9.55,3.57,0,5.66-.75,7.16-4.39C42,2.42,46.25,0,51.53,0c5.09,0,8.84,2.6,11.34,7,.74,1.29,1.27,2.69,2.15,4.61,1.81,0,3.78-.1,5.73,0,5.18.31,9,3.23,9.73,8.36.59,4.36.12,8.87.12,13.55Zm20.6-16.93H37.85c-1.5,0-3-.07-4.49,0-4.22.23-6.37,2.24-6.71,6.48a41.6,41.6,0,0,0,.22,5.31H75.73a24.38,24.38,0,0,0,.41-2.71c.28-6.86-1.83-9.08-8.59-9.1H60.33c-1.33-8.06-4-11.31-8.88-11.3S44,8.31,42.49,16.59Z" fill="#00a648"/><path d="M11.19,26.05h7c.18,2,1,3.71-1.25,5.25-.82.56-1.18,2.28-1.18,3.48q-.09,41.21,0,82.42a31.88,31.88,0,0,0,.45,3.45H56.23v4.76h-45Z" fill="#00a648"/><path d="M102.53,62.27H98.22a18.68,18.68,0,0,1-.34-2.45c0-11.3,0-22.6,0-33.9,0-6.07-.37-6.38-6.61-6.4H84.88c-.14-1.6-.26-3-.42-4.84,4.33,0,8.28-.27,12.16.08a6.54,6.54,0,0,1,5.83,6.5C102.63,34.84,102.53,48.43,102.53,62.27Z" fill="#00a648"/><path d="M91.44,62.28h-4A5.87,5.87,0,0,1,87,60.75c0-8.32,0-16.64-.08-25,0-1.89.51-3.86-1.76-5.3-.78-.49-.52-2.63-.79-4.36h7.09Z" fill="#00a648"/><path d="M35.36,63.89A78.71,78.71,0,0,1,29,57c-.8-1.07-1.32-3.35-.73-4.25,1.23-1.87,2.83-.58,4.1.63.81.77,1.71,1.45,2.79,2.36,2.76-3.61,5.34-7,8-10.4,1-1.27,2-3,4-1.72,2.12,1.39,1.23,3.1,0,4.67Z" fill="#00a648"/><path d="M35.32,86.84c-2.27-2.34-4.22-4.34-6.15-6.36-1.45-1.53-2.76-3.4-.66-5,.65-.51,2.75.67,4.08,1.29a15.13,15.13,0,0,1,2.54,2c2.72-3.58,5.28-7,7.92-10.39,1.1-1.4,2.28-3.27,4.39-1.52,1.72,1.43.75,3-.28,4.38C43.3,76.37,39.4,81.48,35.32,86.84Z" fill="#00a648"/><path d="M35.1,101.73c2.77-3.6,5.36-7,8-10.39,1-1.26,2-3,4-1.71,2.17,1.42,1.15,3.15,0,4.68-3.85,5.14-7.73,10.25-11.79,15.62A79.16,79.16,0,0,1,28.88,103c-.79-1.07-1.28-3.35-.67-4.29,1.23-1.9,2.83-.54,4.1.62C33.14,100.11,34,100.81,35.1,101.73Z" fill="#00a648"/><path d="M81.57,111.57H71V95.09l10.39-.51V83.73H97.07c.17,3.5.34,6.9.53,10.85,1.71.09,3.3.22,4.89.26s3.31,0,5.36,0v16.4l-10.19.48v10.74H81.57Zm4.9-12-10.53.65V106l10.65.73v10.79h6v-11l10.84-.56c-.14-2.25-.24-4-.35-5.77L92.8,99.56c-.2-4-.38-7.36-.57-11.09l-5.76.41Z" fill="#00a648"/><path d="M53.64,16.43H49.05c0-1.34-.48-3,.12-3.69.74-.86,2.4-.93,4.17-1.52C53.46,13.24,53.53,14.6,53.64,16.43Z" fill="#00a648"/></svg>