<svg width="122" height="112" viewBox="0 0 122 112" fill="none" xmlns="http://www.w3.org/2000/svg">
<path d="M119.031 100.829C122.968 94.0325 122.993 85.932 119.081 79.1606L79.8072 11.1464C75.92 4.29986 68.8979 0.237061 61.0231 0.237061C53.1483 0.237061 46.1262 4.32493 42.2389 11.1213L2.91506 79.2108C-0.997258 86.0574 -0.972179 94.208 2.9903 101.004C6.90262 107.726 13.8997 111.763 21.7243 111.763H100.171C108.021 111.763 115.068 107.675 119.031 100.829ZM110.504 95.9134C108.322 99.6752 104.46 101.907 100.146 101.907H21.6992C17.4358 101.907 13.5987 99.7254 11.467 96.0388C9.31021 92.302 9.28513 87.838 11.4419 84.0761L50.7658 16.0117C52.8975 12.275 56.7095 10.068 61.0231 10.068C65.3116 10.068 69.1487 12.3001 71.2804 16.0368L110.579 84.1012C112.686 87.7627 112.661 92.1766 110.504 95.9134Z" fill="#D5DCE0"/>
</svg>
